<svg width="32" height="32" viewBox="0 0 32 32" fill="none" xmlns="http://www.w3.org/2000/svg">
<circle cx="16" cy="16" r="16" fill="black"/>
<path d="M23 19.6436C23 19.6436 22.7474 19.5972 22.1048 19.4684C21.9579 18.0908 21.8198 16.2319 21.8616 14.347C21.9444 10.6206 23 8.40888 23 8.40888L20.5783 10.0231C20.5783 10.0231 20.3094 12.6332 20.3094 14.9047C20.3094 16.2189 20.4411 17.9335 20.5522 19.1449C19.6836 18.9733 18.7343 18.8022 17.9274 18.6969C17.6158 17.5697 17.1428 16.2486 16.911 15.4238C16.8021 15.0352 16.6467 14.4388 16.4841 13.7527C16.8612 12.3978 17.0018 11.4109 17.0495 9.87715C17.1129 7.84507 16 5 16 5C16 5 14.2208 7.41825 14.5586 11.1373C14.6785 12.4588 15.119 14.0893 15.5049 15.3539C15.0223 16.5323 14.5966 17.2266 14.0131 17.7164C13.2302 18.3737 12.2311 18.3579 12.2311 18.3579C12.2311 18.3579 12.3143 18.6465 12.3308 18.8229C12.3477 18.9993 12.1978 19.4001 12.1978 19.4001C12.1978 19.4001 13.53 19.1115 14.2964 19.0794C15.0624 19.0473 16.5449 19.0314 16.5449 19.0314C16.5449 19.0314 17.0609 21.4684 17.0445 22.7513C17.028 24.0338 16.7282 24.5631 16.7282 24.5631C16.7282 24.5631 16.0285 23.7131 15.6286 23.168C15.2292 22.6228 14.8458 21.1798 14.8458 20.9074C14.8458 20.6347 15.0125 20.1696 15.0125 20.1696C15.0125 20.1696 13.88 20.2176 13.1968 20.2818C12.514 20.3461 11.3482 20.6026 11.3482 20.6026C11.3482 20.6026 11.5471 18.2306 11.7312 15.0628C11.9313 11.6235 11.3482 9.95601 11.3482 9.95601L9 8.41742C9.01816 8.44262 10.1823 10.0922 10.1823 15.1352C10.1823 18.1014 9.6659 21.709 9.6659 21.709C9.6659 21.709 10.8487 21.244 12.2142 21.0355C13.5802 20.8269 14.2964 21.1156 14.2964 21.1156C14.2964 21.1156 13.4802 22.7192 14.3298 24.3704C14.9788 25.6329 16 27 16 27C16 27 16.7611 26.0703 17.5942 24.483C18.2378 23.2566 18.334 21.9631 18.2829 20.8912C18.5304 20.8969 18.8851 20.9156 19.3779 20.9623C20.9799 21.1139 22.4 21.6997 22.4 21.6997C22.4 21.6997 22.2771 20.9806 22.1475 19.8542C22.7474 19.9621 23 20.0095 23 20.0095V19.6436ZM16 6.30332C16 6.30332 16.778 8.65725 16.8017 9.50723C16.8215 10.2255 16.7789 11.4365 16.3224 13.0433C16.0429 11.7812 15.7827 10.369 15.7452 9.41089C15.6789 7.71133 16 6.30332 16 6.30332ZM13.3763 18.6563C13.3763 18.6563 14.817 17.9555 15.7169 16.0331C15.8752 16.5291 16.0078 16.9246 16.0804 17.1571C16.2561 17.7209 16.387 18.2689 16.455 18.5721C14.7334 18.4989 13.3763 18.6563 13.3763 18.6563ZM20.7025 20.6436C20.7025 20.6436 19.9365 20.4843 19.3986 20.4245C19.089 20.3904 18.6017 20.3558 18.2437 20.333C18.2331 20.2217 18.2221 20.1135 18.2103 20.0095C18.1812 19.7485 18.1178 19.4379 18.0338 19.0997C18.2779 19.1164 18.5194 19.138 18.717 19.1644C18.9928 19.2014 19.7625 19.3546 20.5876 19.5253C20.6522 20.1997 20.7025 20.6436 20.7025 20.6436Z" fill="white"/>
</svg>
