<svg width="32" height="32" viewBox="0 0 32 32" fill="none" xmlns="http://www.w3.org/2000/svg">
<path d="M32 16C32 7.16337 24.8366 0 16 0C7.16337 0 0 7.16337 0 16C0 23.9864 5.85189 30.6071 13.5037 31.8101V20.6218H9.44262V16H13.5037V12.4726C13.5037 8.4658 15.8915 6.24986 19.5455 6.24986C21.3002 6.24986 23.1272 6.56642 23.1272 6.56642V10.5008H21.1102C19.1204 10.5008 18.5054 11.7309 18.5054 12.9972V16H22.9463L22.2408 20.6218H18.5144V31.801C26.1481 30.6071 32 23.9864 32 16Z" fill="#CCCCCC"/>
<path d="M22.2318 20.6218L22.9373 16H18.4963V12.9971C18.4963 11.7309 19.1204 10.5008 21.1012 10.5008H23.1182V6.56638C23.1182 6.56638 21.2911 6.24982 19.5365 6.24982C15.8824 6.24982 13.4946 8.46576 13.4946 12.4725V16H9.43359V20.6218H13.4946V31.801C14.3087 31.9276 15.1408 32 15.991 32C16.8412 32 17.6733 31.9366 18.4873 31.801V20.6218H22.2318Z" fill="#454545"/>
</svg>
