<svg width="40" height="40" viewBox="0 0 40 40" fill="none" xmlns="http://www.w3.org/2000/svg">
<path d="M40 20C40 8.95421 31.0458 0 20 0C8.95421 0 0 8.95421 0 20C0 29.983 7.31487 38.2589 16.8796 39.7626V25.7773H11.8033V20H16.8796V15.5907C16.8796 10.5822 19.8643 7.81232 24.4319 7.81232C26.6252 7.81232 28.909 8.20803 28.909 8.20803V13.1261H26.3878C23.9005 13.1261 23.1317 14.6636 23.1317 16.2465V20H28.6829L27.801 25.7773H23.143V39.7513C32.6851 38.2589 40 29.983 40 20Z" fill="#3B5998"/>
<path d="M27.7897 25.7772L28.6716 19.9999H23.1204V16.2464C23.1204 14.6636 23.9005 13.126 26.3765 13.126H28.8977V8.20796C28.8977 8.20796 26.6139 7.81226 24.4206 7.81226C19.853 7.81226 16.8683 10.5822 16.8683 15.5907V19.9999H11.792V25.7772H16.8683V39.7512C17.8858 39.9095 18.926 39.9999 19.9887 39.9999C21.0515 39.9999 22.0916 39.9208 23.1091 39.7512V25.7772H27.7897Z" fill="white"/>
</svg>
