<svg width="26" height="40" viewBox="0 0 26 40" fill="none" xmlns="http://www.w3.org/2000/svg">
<path d="M26 26.6248C26 26.6248 25.5309 26.5403 24.3375 26.3062C24.0646 23.8015 23.8082 20.4216 23.8858 16.9945C24.0395 10.2193 26 6.19796 26 6.19796L21.5026 9.13287C21.5026 9.13287 21.0031 13.8785 21.0031 18.0085C21.0031 20.398 21.2478 23.5155 21.454 25.7179C19.8409 25.406 18.0781 25.0949 16.5795 24.9035C16.0007 22.854 15.1224 20.452 14.6919 18.9523C14.4896 18.2458 14.201 17.1615 13.8991 15.914C14.5994 13.4506 14.8605 11.6561 14.9491 8.86754C15.0667 5.17285 13 0 13 0C13 0 9.69579 4.39681 10.3231 11.1587C10.5459 13.5615 11.3638 16.5259 12.0805 18.8252C11.1842 20.9678 10.3937 22.2302 9.30997 23.1208C7.85607 24.3159 6.00066 24.2871 6.00066 24.2871C6.00066 24.2871 6.15515 24.8118 6.18573 25.1326C6.2171 25.4533 5.93871 26.1821 5.93871 26.1821C5.93871 26.1821 8.41285 25.6573 9.83616 25.5989C11.2587 25.5405 14.012 25.5117 14.012 25.5117C14.012 25.5117 14.9703 29.9425 14.9397 32.2751C14.9091 34.6069 14.3523 35.5692 14.3523 35.5692C14.3523 35.5692 13.0529 34.0238 12.3103 33.0326C11.5685 32.0415 10.8564 29.4178 10.8564 28.9226C10.8564 28.4267 11.1662 27.5812 11.1662 27.5812C11.1662 27.5812 9.06295 27.6684 7.79412 27.7851C6.52607 27.9019 4.36091 28.3683 4.36091 28.3683C4.36091 28.3683 4.73027 24.0557 5.07218 18.296C5.44388 12.0426 4.36091 9.01092 4.36091 9.01092L0 6.21348C0.0337204 6.25931 2.19575 9.25851 2.19575 18.4276C2.19575 23.8207 1.23668 30.3801 1.23668 30.3801C1.23668 30.3801 3.43321 29.5346 5.9693 29.1554C8.50617 28.7763 9.83616 29.301 9.83616 29.301C9.83616 29.301 8.32031 32.2167 9.89812 35.2189C11.1034 37.5145 13 40 13 40C13 40 14.4135 38.3097 15.9607 35.4236C17.1558 33.1938 17.3346 30.842 17.2398 28.893C17.6993 28.9034 18.358 28.9374 19.2732 29.0224C22.2484 29.2981 24.8857 30.3631 24.8857 30.3631C24.8857 30.3631 24.6575 29.0556 24.4167 27.0076C25.5309 27.2038 26 27.29 26 27.29V26.6248ZM13 2.36967C13 2.36967 14.4449 6.64954 14.4888 8.19497C14.5257 9.50093 14.4464 11.7027 13.5987 14.6243C13.0796 12.3294 12.5965 9.76183 12.5267 8.01981C12.4036 4.92969 13 2.36967 13 2.36967ZM8.1274 24.8295C8.1274 24.8295 10.8031 23.5554 12.4742 20.0602C12.7683 20.9619 13.0145 21.681 13.1494 22.1038C13.4756 23.1289 13.7187 24.1252 13.845 24.6766C10.6478 24.5435 8.1274 24.8295 8.1274 24.8295ZM21.7332 28.4429C21.7332 28.4429 20.3107 28.1532 19.3116 28.0446C18.7368 27.9825 17.8318 27.9197 17.1668 27.8783C17.1472 27.6758 17.1268 27.4792 17.1049 27.29C17.0508 26.8155 16.9331 26.2508 16.7771 25.6359C17.2303 25.6662 17.6789 25.7054 18.0459 25.7534C18.558 25.8207 19.9876 26.0993 21.5199 26.4097C21.6399 27.6359 21.7332 28.4429 21.7332 28.4429Z" fill="white"/>
</svg>
