<svg width="32" height="32" viewBox="0 0 32 32" fill="none" xmlns="http://www.w3.org/2000/svg">
<path d="M16 32C24.8366 32 32 24.8366 32 16C32 7.16344 24.8366 0 16 0C7.16344 0 0 7.16344 0 16C0 24.8366 7.16344 32 16 32Z" fill="#CCCCCC"/>
<path d="M20.9667 9.94897C20.3607 9.94897 19.8633 10.4374 19.8633 11.0524C19.8633 11.6584 20.3517 12.1559 20.9667 12.1559C21.5727 12.1559 22.0702 11.6675 22.0702 11.0524C22.0702 10.4374 21.5727 9.94897 20.9667 9.94897Z" fill="#454545"/>
<path d="M16.0828 11.3601C13.5322 11.3601 11.4609 13.4313 11.4609 15.9819C11.4609 18.5325 13.5322 20.6037 16.0828 20.6037C18.6334 20.6037 20.7046 18.5325 20.7046 15.9819C20.6955 13.4313 18.6243 11.3601 16.0828 11.3601ZM16.0828 18.9395C14.4547 18.9395 13.1252 17.61 13.1252 15.9819C13.1252 14.3539 14.4547 13.0243 16.0828 13.0243C17.7108 13.0243 19.0404 14.3539 19.0404 15.9819C19.0404 17.61 17.7108 18.9395 16.0828 18.9395Z" fill="#454545"/>
<path d="M19.7459 25.3612H12.2569C9.14553 25.3612 6.62207 22.8287 6.62207 19.7263V12.2374C6.62207 9.126 9.14553 6.60254 12.2569 6.60254H19.7459C22.8572 6.60254 25.3807 9.126 25.3807 12.2374V19.7263C25.3807 22.8287 22.8572 25.3612 19.7459 25.3612ZM12.2569 8.36625C10.1224 8.36625 8.38578 10.1028 8.38578 12.2374V19.7263C8.38578 21.8609 10.1224 23.5975 12.2569 23.5975H19.7459C21.8804 23.5975 23.617 21.8609 23.617 19.7263V12.2374C23.617 10.1028 21.8804 8.36625 19.7459 8.36625H12.2569Z" fill="#454545"/>
</svg>
