<svg width="40" height="40" viewBox="0 0 40 40" fill="none" xmlns="http://www.w3.org/2000/svg">
<path d="M20 40C31.0457 40 40 31.0457 40 20C40 8.9543 31.0457 0 20 0C8.9543 0 0 8.9543 0 20C0 31.0457 8.9543 40 20 40Z" fill="url(#paint0_linear_287_668)"/>
<path d="M26.2084 12.4362C25.4509 12.4362 24.8291 13.0467 24.8291 13.8155C24.8291 14.573 25.4396 15.1948 26.2084 15.1948C26.9659 15.1948 27.5877 14.5843 27.5877 13.8155C27.5877 13.0467 26.9659 12.4362 26.2084 12.4362Z" fill="white"/>
<path d="M20.1034 14.2001C16.9152 14.2001 14.3262 16.7892 14.3262 19.9774C14.3262 23.1657 16.9152 25.7547 20.1034 25.7547C23.2917 25.7547 25.8807 23.1657 25.8807 19.9774C25.8694 16.7892 23.2804 14.2001 20.1034 14.2001ZM20.1034 23.6744C18.0684 23.6744 16.4064 22.0125 16.4064 19.9774C16.4064 17.9424 18.0684 16.2804 20.1034 16.2804C22.1385 16.2804 23.8004 17.9424 23.8004 19.9774C23.8004 22.0125 22.1385 23.6744 20.1034 23.6744Z" fill="white"/>
<path d="M24.6821 31.7015H15.3209C11.4317 31.7015 8.27734 28.5358 8.27734 24.6579V15.2967C8.27734 11.4075 11.4317 8.25317 15.3209 8.25317H24.6821C28.5713 8.25317 31.7256 11.4075 31.7256 15.2967V24.6579C31.7256 28.5358 28.5713 31.7015 24.6821 31.7015ZM15.3209 10.4578C12.6527 10.4578 10.482 12.6285 10.482 15.2967V24.6579C10.482 27.3261 12.6527 29.4968 15.3209 29.4968H24.6821C27.3503 29.4968 29.521 27.3261 29.521 24.6579V15.2967C29.521 12.6285 27.3503 10.4578 24.6821 10.4578H15.3209V10.4578Z" fill="white"/>
<defs>
<linearGradient id="paint0_linear_287_668" x1="1.2658" y1="4.17728" x2="41.2597" y2="37.956" gradientUnits="userSpaceOnUse">
<stop offset="0.0011048" stop-color="#FBE18A"/>
<stop offset="0.2094" stop-color="#FCBB45"/>
<stop offset="0.3765" stop-color="#F75274"/>
<stop offset="0.5238" stop-color="#D53692"/>
<stop offset="0.7394" stop-color="#8F39CE"/>
<stop offset="1" stop-color="#5B4FE9"/>
</linearGradient>
</defs>
</svg>
