<svg width="1920" height="360" viewBox="0 0 1920 360" fill="none" xmlns="http://www.w3.org/2000/svg">
<mask id="mask0_153_506" style="mask-type:alpha" maskUnits="userSpaceOnUse" x="0" y="11" width="1920" height="338">
<rect x="1060" y="11" width="860" height="338" fill="#D9D9D9"/>
<rect y="11" width="860" height="338" fill="#D9D9D9"/>
</mask>
<g mask="url(#mask0_153_506)">
<path d="M-5.71777 179.506C-5.71777 179.506 235.659 241.686 477.037 241.686C718.414 241.686 959.791 179.506 959.791 179.506C959.791 179.506 1201.17 117.325 1442.55 117.325C1683.92 117.325 1925.3 179.506 1925.3 179.506" stroke="#CC0000" stroke-width="4"/>
<path d="M-5.04977 245.141C-5.04977 245.141 243.13 290.676 484.34 274.267C725.55 257.858 959.79 179.505 959.79 179.505C959.79 179.505 1194.03 101.153 1435.24 84.7438C1676.45 68.3349 1924.63 113.87 1924.63 113.87" stroke="#CC0000" stroke-opacity="0.75" stroke-width="2"/>
<path d="M-4.86352 311.764C-4.86352 311.764 250.187 339.935 491.35 306.871C732.514 273.806 959.791 179.506 959.791 179.506C959.791 179.506 1187.07 85.2053 1428.23 52.1408C1669.4 19.0762 1924.45 47.2475 1924.45 47.2475" stroke="#CC0000" stroke-opacity="0.5"/>
</g>
<path d="M903.9 264.26C904.034 264.26 904.101 264.394 904.101 264.662C904.101 264.93 904.034 265.064 903.9 265.064C902.292 265.064 900.751 265.778 899.277 267.208C897.803 268.637 896.619 270.558 895.726 272.97L883.329 306.071C883.285 306.25 883.039 306.339 882.592 306.339C882.146 306.339 881.9 306.25 881.855 306.071L864.769 269.821C863.965 268.213 863.161 267.029 862.357 266.27C861.553 265.466 860.659 265.064 859.676 265.064C859.542 265.064 859.475 264.93 859.475 264.662C859.475 264.394 859.542 264.26 859.676 264.26C860.346 264.26 860.815 264.282 861.083 264.327C861.977 264.416 863.138 264.461 864.568 264.461C868.409 264.461 871.67 264.416 874.351 264.327C875.065 264.282 875.959 264.26 877.031 264.26C877.165 264.26 877.232 264.394 877.232 264.662C877.232 264.93 877.165 265.064 877.031 265.064C875.691 265.064 874.641 265.354 873.882 265.935C873.167 266.471 872.81 267.253 872.81 268.28C872.81 269.039 873.055 269.955 873.547 271.027L885.139 295.752L893.849 272.769C894.296 271.519 894.519 270.446 894.519 269.553C894.519 268.168 894.095 267.074 893.246 266.27C892.442 265.466 891.258 265.064 889.695 265.064C889.561 265.064 889.494 264.93 889.494 264.662C889.494 264.394 889.561 264.26 889.695 264.26L892.978 264.327C894.854 264.416 896.53 264.461 898.004 264.461C898.852 264.461 899.902 264.416 901.153 264.327L903.9 264.26Z" fill="black"/>
<path d="M918.786 300.711C918.786 302.096 918.898 303.101 919.121 303.726C919.344 304.351 919.769 304.776 920.394 304.999C921.064 305.223 922.114 305.334 923.543 305.334C923.678 305.334 923.745 305.468 923.745 305.736C923.745 306.004 923.678 306.138 923.543 306.138C922.069 306.138 920.908 306.116 920.059 306.071L914.967 306.004L910.008 306.071C909.115 306.116 907.909 306.138 906.39 306.138C906.301 306.138 906.256 306.004 906.256 305.736C906.256 305.468 906.301 305.334 906.39 305.334C907.819 305.334 908.869 305.223 909.539 304.999C910.209 304.776 910.656 304.351 910.879 303.726C911.147 303.056 911.281 302.051 911.281 300.711V269.687C911.281 268.347 911.147 267.364 910.879 266.739C910.656 266.113 910.209 265.689 909.539 265.466C908.869 265.198 907.819 265.064 906.39 265.064C906.301 265.064 906.256 264.93 906.256 264.662C906.256 264.394 906.301 264.26 906.39 264.26L910.008 264.327C912.063 264.416 913.716 264.461 914.967 264.461C916.352 264.461 918.071 264.416 920.126 264.327L923.543 264.26C923.678 264.26 923.745 264.394 923.745 264.662C923.745 264.93 923.678 265.064 923.543 265.064C922.159 265.064 921.131 265.198 920.461 265.466C919.791 265.734 919.344 266.203 919.121 266.873C918.898 267.498 918.786 268.481 918.786 269.821V300.711Z" fill="black"/>
<path d="M954.688 263.523C956.653 263.523 958.708 263.701 960.852 264.059C962.996 264.371 964.672 264.796 965.878 265.332C966.28 265.466 966.525 265.644 966.615 265.868C966.749 266.046 966.86 266.381 966.95 266.873L967.754 276.187C967.754 276.321 967.642 276.41 967.419 276.455C967.195 276.499 967.061 276.432 967.017 276.254C965.498 272.725 963.465 270 960.919 268.079C958.373 266.158 955.425 265.198 952.074 265.198C947.652 265.198 944.235 266.828 941.823 270.089C939.41 273.35 938.204 277.728 938.204 283.222C938.204 287.332 938.852 291.084 940.147 294.479C941.487 297.874 943.341 300.577 945.709 302.587C948.121 304.553 950.846 305.535 953.884 305.535C956.743 305.535 959.289 304.597 961.522 302.721C963.8 300.8 965.833 297.897 967.62 294.01C967.664 293.832 967.798 293.765 968.022 293.809C968.29 293.854 968.424 293.943 968.424 294.077L967.419 303.19C967.329 303.726 967.218 304.083 967.084 304.262C966.994 304.396 966.749 304.552 966.347 304.731C962.371 306.205 958.284 306.942 954.085 306.942C948.635 306.942 944.078 305.87 940.415 303.726C936.752 301.537 934.05 298.79 932.308 295.484C930.61 292.134 929.761 288.65 929.761 285.031C929.761 280.788 930.901 277.035 933.179 273.774C935.502 270.513 938.562 267.99 942.359 266.203C946.2 264.416 950.31 263.523 954.688 263.523Z" fill="black"/>
<path d="M1020.35 305.334C1020.48 305.334 1020.55 305.468 1020.55 305.736C1020.55 306.004 1020.48 306.138 1020.35 306.138C1018.79 306.138 1017.54 306.116 1016.6 306.071L1011.44 306.004L1005.41 306.071C1004.6 306.116 1003.51 306.138 1002.12 306.138C1001.99 306.138 1001.92 306.004 1001.92 305.736C1001.92 305.468 1001.99 305.334 1002.12 305.334C1003.78 305.334 1004.98 305.223 1005.74 304.999C1006.5 304.776 1007.02 304.351 1007.28 303.726C1007.55 303.101 1007.69 302.096 1007.69 300.711V285.299H986.043V300.711C986.043 302.051 986.177 303.056 986.445 303.726C986.713 304.351 987.227 304.776 987.986 304.999C988.745 305.223 989.951 305.334 991.604 305.334C991.694 305.334 991.738 305.468 991.738 305.736C991.738 306.004 991.694 306.138 991.604 306.138C990.041 306.138 988.79 306.116 987.852 306.071L982.022 306.004L976.997 306.071C976.104 306.116 974.875 306.138 973.312 306.138C973.222 306.138 973.178 306.004 973.178 305.736C973.178 305.468 973.222 305.334 973.312 305.334C974.875 305.334 976.014 305.223 976.729 304.999C977.444 304.776 977.935 304.351 978.203 303.726C978.471 303.056 978.605 302.051 978.605 300.711V269.687C978.605 268.347 978.471 267.364 978.203 266.739C977.935 266.113 977.444 265.689 976.729 265.466C976.059 265.198 974.964 265.064 973.446 265.064C973.312 265.064 973.245 264.93 973.245 264.662C973.245 264.394 973.312 264.26 973.446 264.26L977.064 264.327C979.119 264.416 980.772 264.461 982.022 264.461C983.72 264.461 985.685 264.416 987.919 264.327L991.604 264.26C991.694 264.26 991.738 264.394 991.738 264.662C991.738 264.93 991.694 265.064 991.604 265.064C989.996 265.064 988.812 265.198 988.053 265.466C987.294 265.734 986.758 266.203 986.445 266.873C986.177 267.498 986.043 268.481 986.043 269.821V283.423H1007.69V269.821C1007.69 268.481 1007.55 267.498 1007.28 266.873C1007.02 266.203 1006.5 265.734 1005.74 265.466C1004.98 265.198 1003.78 265.064 1002.12 265.064C1001.99 265.064 1001.92 264.93 1001.92 264.662C1001.92 264.394 1001.99 264.26 1002.12 264.26L1005.41 264.327C1007.64 264.416 1009.65 264.461 1011.44 264.461C1012.64 264.461 1014.36 264.416 1016.6 264.327L1020.35 264.26C1020.48 264.26 1020.55 264.394 1020.55 264.662C1020.55 264.93 1020.48 265.064 1020.35 265.064C1018.83 265.064 1017.69 265.198 1016.93 265.466C1016.22 265.689 1015.73 266.113 1015.46 266.739C1015.24 267.364 1015.12 268.347 1015.12 269.687V300.711C1015.12 302.051 1015.24 303.056 1015.46 303.726C1015.73 304.351 1016.22 304.776 1016.93 304.999C1017.65 305.223 1018.79 305.334 1020.35 305.334Z" fill="black"/>
<path d="M1055.71 295.484C1055.71 295.395 1055.8 295.35 1055.98 295.35C1056.11 295.35 1056.22 295.395 1056.31 295.484C1056.44 295.529 1056.51 295.574 1056.51 295.618C1056.06 299.103 1055.84 302.274 1055.84 305.133C1055.84 305.491 1055.77 305.759 1055.64 305.937C1055.51 306.071 1055.24 306.138 1054.84 306.138H1025.22C1025.09 306.138 1025.02 306.004 1025.02 305.736C1025.02 305.468 1025.09 305.334 1025.22 305.334C1026.65 305.334 1027.68 305.223 1028.3 304.999C1028.97 304.776 1029.42 304.351 1029.64 303.726C1029.87 303.056 1029.98 302.051 1029.98 300.711V269.687C1029.98 268.347 1029.87 267.364 1029.64 266.739C1029.42 266.113 1028.97 265.689 1028.3 265.466C1027.63 265.198 1026.6 265.064 1025.22 265.064C1025.09 265.064 1025.02 264.93 1025.02 264.662C1025.02 264.394 1025.09 264.26 1025.22 264.26H1053.63C1054.08 264.26 1054.3 264.461 1054.3 264.863L1054.43 273.774C1054.43 273.864 1054.3 273.931 1054.03 273.975C1053.81 274.02 1053.67 273.975 1053.63 273.841C1052.92 271.251 1051.71 269.33 1050.01 268.079C1048.31 266.828 1046.08 266.203 1043.31 266.203H1041.3C1039.96 266.203 1038.98 266.493 1038.35 267.074C1037.73 267.655 1037.41 268.548 1037.41 269.754V283.423H1042.98C1045.57 283.423 1047.55 282.977 1048.94 282.083C1050.32 281.19 1051.02 279.939 1051.02 278.331C1051.02 278.197 1051.13 278.13 1051.35 278.13C1051.62 278.13 1051.75 278.197 1051.75 278.331L1051.69 284.361L1051.75 287.578C1051.84 289.096 1051.89 290.303 1051.89 291.196C1051.89 291.285 1051.75 291.33 1051.49 291.33C1051.22 291.33 1051.08 291.285 1051.08 291.196C1051.08 289.364 1050.37 287.935 1048.94 286.908C1047.55 285.836 1045.54 285.299 1042.91 285.299H1037.41V300.443C1037.41 301.738 1037.66 302.699 1038.15 303.324C1038.64 303.949 1039.42 304.262 1040.5 304.262H1042.71C1046.19 304.262 1048.98 303.547 1051.08 302.118C1053.18 300.688 1054.72 298.477 1055.71 295.484Z" fill="black"/>
<path d="M872.421 340.043C870.344 340.043 868.49 339.563 866.86 338.603C865.252 337.62 864.001 336.302 863.108 334.649C862.236 332.974 861.801 331.154 861.801 329.188C861.801 326.888 862.382 324.922 863.543 323.292C864.705 321.639 866.19 320.399 867.999 319.573C869.83 318.747 871.695 318.333 873.594 318.333C875.716 318.333 877.581 318.836 879.189 319.841C880.797 320.824 882.026 322.13 882.874 323.761C883.745 325.391 884.181 327.122 884.181 328.954C884.181 330.986 883.645 332.851 882.573 334.549C881.501 336.246 880.06 337.586 878.251 338.569C876.464 339.552 874.521 340.043 872.421 340.043ZM873.527 339.206C874.778 339.206 875.894 338.848 876.877 338.134C877.882 337.397 878.664 336.336 879.222 334.951C879.781 333.544 880.06 331.869 880.06 329.925C880.06 327.871 879.747 326.039 879.122 324.431C878.497 322.8 877.592 321.527 876.408 320.612C875.224 319.696 873.84 319.238 872.254 319.238C870.221 319.238 868.658 320.009 867.563 321.55C866.469 323.068 865.922 325.201 865.922 327.949C865.922 330.115 866.246 332.058 866.893 333.778C867.563 335.476 868.468 336.805 869.607 337.765C870.769 338.726 872.075 339.206 873.527 339.206Z" fill="black"/>
<path d="M901.791 323.459C901.791 323.504 901.724 323.538 901.59 323.56C901.478 323.582 901.411 323.56 901.389 323.493C901.031 322.197 900.428 321.237 899.58 320.612C898.731 319.986 897.614 319.674 896.229 319.674H895.224C894.554 319.674 894.063 319.819 893.75 320.109C893.437 320.399 893.281 320.846 893.281 321.449V328.686H895.693C896.989 328.686 897.972 328.462 898.642 328.016C899.334 327.547 899.68 326.91 899.68 326.106C899.68 326.061 899.747 326.039 899.881 326.039C900.015 326.039 900.082 326.061 900.082 326.106L900.049 329.155C900.049 329.87 900.06 330.406 900.082 330.763L900.116 332.539C900.116 332.606 900.049 332.639 899.915 332.639C899.781 332.639 899.714 332.606 899.714 332.539C899.714 331.645 899.356 330.942 898.642 330.428C897.949 329.892 896.955 329.624 895.66 329.624H893.281V336.794C893.281 337.486 893.37 338 893.549 338.335C893.728 338.67 894.063 338.904 894.554 339.038C895.046 339.172 895.816 339.239 896.866 339.239C896.911 339.239 896.933 339.306 896.933 339.44C896.933 339.574 896.911 339.641 896.866 339.641C895.95 339.641 895.235 339.63 894.722 339.608L891.304 339.574L888.792 339.608C888.345 339.63 887.731 339.641 886.949 339.641C886.882 339.641 886.849 339.574 886.849 339.44C886.849 339.306 886.882 339.239 886.949 339.239C887.731 339.239 888.3 339.183 888.658 339.072C889.015 338.96 889.25 338.748 889.361 338.435C889.495 338.1 889.562 337.598 889.562 336.928V321.416C889.562 320.746 889.506 320.254 889.395 319.942C889.283 319.629 889.06 319.417 888.725 319.305C888.39 319.171 887.876 319.104 887.184 319.104C887.117 319.104 887.083 319.037 887.083 318.903C887.083 318.769 887.117 318.702 887.184 318.702H901.389C901.612 318.702 901.724 318.802 901.724 319.003L901.791 323.459Z" fill="black"/>
<path d="M930.296 322.99C930.296 321.784 930.017 320.835 929.459 320.143C928.923 319.45 928.163 319.104 927.181 319.104C927.136 319.104 927.114 319.037 927.114 318.903C927.114 318.769 927.136 318.702 927.181 318.702L928.789 318.735C929.638 318.78 930.319 318.802 930.832 318.802C931.257 318.802 931.871 318.78 932.675 318.735L934.216 318.702C934.261 318.702 934.283 318.769 934.283 318.903C934.283 319.037 934.261 319.104 934.216 319.104C933.345 319.104 932.664 319.45 932.173 320.143C931.681 320.835 931.436 321.784 931.436 322.99V332.304C931.436 333.868 931.089 335.241 930.397 336.425C929.705 337.609 928.722 338.525 927.449 339.172C926.198 339.798 924.746 340.11 923.093 340.11C921.44 340.11 919.978 339.798 918.704 339.172C917.431 338.547 916.426 337.642 915.689 336.458C914.974 335.252 914.617 333.845 914.617 332.237V321.416C914.617 320.746 914.55 320.254 914.416 319.942C914.304 319.629 914.081 319.417 913.746 319.305C913.433 319.171 912.931 319.104 912.238 319.104C912.171 319.104 912.138 319.037 912.138 318.903C912.138 318.769 912.171 318.702 912.238 318.702L914.014 318.735C915.041 318.78 915.857 318.802 916.46 318.802C917.13 318.802 917.979 318.78 919.006 318.735L920.715 318.702C920.782 318.702 920.815 318.769 920.815 318.903C920.815 319.037 920.782 319.104 920.715 319.104C920.022 319.104 919.508 319.171 919.173 319.305C918.861 319.439 918.637 319.674 918.503 320.009C918.392 320.321 918.336 320.813 918.336 321.483V331.065C918.336 333.722 918.861 335.688 919.911 336.961C920.96 338.234 922.446 338.871 924.366 338.871C926.22 338.871 927.672 338.312 928.722 337.196C929.772 336.056 930.296 334.437 930.296 332.338V322.99Z" fill="black"/>
<path d="M956.969 339.239C957.036 339.239 957.07 339.306 957.07 339.44C957.07 339.574 957.036 339.641 956.969 339.641H953.217C952.859 339.641 952.558 339.652 952.312 339.675C952.066 339.697 951.865 339.708 951.709 339.708C951.352 339.708 951.039 339.63 950.771 339.474C950.525 339.295 950.213 338.982 949.833 338.536C949.476 338.089 948.828 337.229 947.89 335.956C947.778 335.8 947.644 335.632 947.488 335.453C947.354 335.252 947.197 335.029 947.019 334.783L942.63 328.887L941.893 329.624V336.928C941.893 337.62 941.948 338.122 942.06 338.435C942.172 338.748 942.384 338.96 942.697 339.072C943.032 339.183 943.557 339.239 944.271 339.239C944.361 339.239 944.405 339.306 944.405 339.44C944.405 339.574 944.361 339.641 944.271 339.641C943.534 339.641 942.954 339.63 942.529 339.608L940.016 339.574L937.537 339.608C937.091 339.63 936.488 339.641 935.728 339.641C935.683 339.641 935.661 339.574 935.661 339.44C935.661 339.306 935.683 339.239 935.728 339.239C936.443 339.239 936.968 339.183 937.303 339.072C937.638 338.96 937.861 338.748 937.973 338.435C938.107 338.1 938.174 337.598 938.174 336.928V321.416C938.174 320.746 938.107 320.254 937.973 319.942C937.861 319.629 937.638 319.417 937.303 319.305C936.99 319.171 936.488 319.104 935.795 319.104C935.728 319.104 935.695 319.037 935.695 318.903C935.695 318.769 935.728 318.702 935.795 318.702L937.571 318.735C938.598 318.78 939.413 318.802 940.016 318.802C940.687 318.802 941.535 318.78 942.563 318.735L944.271 318.702C944.338 318.702 944.372 318.769 944.372 318.903C944.372 319.037 944.338 319.104 944.271 319.104C943.579 319.104 943.065 319.171 942.73 319.305C942.418 319.439 942.194 319.674 942.06 320.009C941.948 320.321 941.893 320.813 941.893 321.483V328.585L948.191 322.153C948.839 321.505 949.163 320.913 949.163 320.377C949.163 319.975 948.984 319.662 948.627 319.439C948.269 319.216 947.767 319.104 947.119 319.104C947.052 319.104 947.019 319.037 947.019 318.903C947.019 318.769 947.052 318.702 947.119 318.702L948.694 318.735C949.677 318.78 950.592 318.802 951.441 318.802C952.357 318.802 953.306 318.78 954.289 318.735L955.796 318.702C955.863 318.702 955.897 318.769 955.897 318.903C955.897 319.037 955.863 319.104 955.796 319.104C954.769 319.104 953.641 319.405 952.413 320.009C951.184 320.589 950.067 321.371 949.062 322.354L945.276 326.207L950.235 332.907C951.687 334.984 952.77 336.458 953.485 337.33C954.222 338.178 954.814 338.714 955.26 338.938C955.707 339.139 956.277 339.239 956.969 339.239Z" fill="black"/>
<path d="M980.397 339.239C980.441 339.239 980.464 339.306 980.464 339.44C980.464 339.574 980.441 339.641 980.397 339.641H974.433C973.942 339.641 973.026 338.726 971.686 336.894C970.346 335.04 968.727 332.46 966.828 329.155C966.649 329.177 966.392 329.188 966.057 329.188C965.186 329.188 964.572 329.177 964.215 329.155V336.928C964.215 337.62 964.271 338.122 964.382 338.435C964.494 338.748 964.706 338.96 965.019 339.072C965.354 339.183 965.879 339.239 966.593 339.239C966.638 339.239 966.661 339.306 966.661 339.44C966.661 339.574 966.638 339.641 966.593 339.641C965.856 339.641 965.276 339.63 964.851 339.608L962.305 339.574L959.859 339.608C959.413 339.63 958.81 339.641 958.05 339.641C957.983 339.641 957.95 339.574 957.95 339.44C957.95 339.306 957.983 339.239 958.05 339.239C958.765 339.239 959.279 339.183 959.591 339.072C959.926 338.96 960.15 338.748 960.261 338.435C960.395 338.1 960.462 337.598 960.462 336.928V321.416C960.462 320.746 960.407 320.254 960.295 319.942C960.183 319.629 959.96 319.417 959.625 319.305C959.29 319.171 958.776 319.104 958.084 319.104C958.039 319.104 958.017 319.037 958.017 318.903C958.017 318.769 958.039 318.702 958.084 318.702L959.859 318.735C960.887 318.78 961.702 318.802 962.305 318.802C962.953 318.802 963.668 318.769 964.449 318.702C964.695 318.68 965.008 318.657 965.387 318.635C965.789 318.613 966.258 318.601 966.795 318.601C968.849 318.601 970.435 318.981 971.552 319.741C972.691 320.478 973.261 321.516 973.261 322.856C973.261 323.884 972.948 324.866 972.323 325.805C971.697 326.743 970.882 327.502 969.877 328.083C971.664 330.897 973.16 333.097 974.366 334.683C975.595 336.269 976.678 337.43 977.616 338.167C978.576 338.882 979.503 339.239 980.397 339.239ZM964.215 328.183C964.751 328.273 965.399 328.317 966.158 328.317C966.962 328.317 967.599 328.194 968.068 327.949C968.537 327.703 968.872 327.279 969.073 326.676C969.296 326.073 969.408 325.224 969.408 324.129C969.408 322.298 969.14 321.036 968.604 320.344C968.068 319.651 967.297 319.305 966.292 319.305C965.533 319.305 964.997 319.472 964.684 319.808C964.371 320.143 964.215 320.701 964.215 321.483V328.183Z" fill="black"/>
<path d="M1004.09 339.239C1004.2 339.239 1004.26 339.306 1004.26 339.44C1004.26 339.574 1004.2 339.641 1004.09 339.641C1003.64 339.641 1002.95 339.619 1002.01 339.574C1001.03 339.53 1000.33 339.507 999.904 339.507C999.345 339.507 998.664 339.53 997.86 339.574C997.1 339.619 996.497 339.641 996.051 339.641C995.961 339.641 995.917 339.574 995.917 339.44C995.917 339.306 995.961 339.239 996.051 339.239C996.631 339.239 997.045 339.183 997.29 339.072C997.558 338.938 997.692 338.714 997.692 338.402C997.692 338.022 997.469 337.385 997.022 336.492L993.538 329.624H987.574L985.196 334.884C984.905 335.532 984.76 336.135 984.76 336.693C984.76 337.497 985.039 338.122 985.598 338.569C986.179 339.016 986.949 339.239 987.91 339.239C988.021 339.239 988.077 339.306 988.077 339.44C988.077 339.574 988.021 339.641 987.91 339.641C987.507 339.641 986.927 339.619 986.167 339.574C985.319 339.53 984.582 339.507 983.956 339.507C983.353 339.507 982.627 339.53 981.778 339.574C981.019 339.619 980.405 339.641 979.936 339.641C979.846 339.641 979.802 339.574 979.802 339.44C979.802 339.306 979.846 339.239 979.936 339.239C980.561 339.239 981.086 339.116 981.51 338.871C981.935 338.603 982.359 338.145 982.784 337.497C983.208 336.827 983.71 335.844 984.291 334.549L991.561 318.568C991.606 318.501 991.707 318.467 991.863 318.467C992.042 318.467 992.142 318.501 992.164 318.568L1000.54 335.051C1001.32 336.637 1001.97 337.732 1002.48 338.335C1003 338.938 1003.53 339.239 1004.09 339.239ZM988.01 328.686H993.069L990.389 323.392L988.01 328.686Z" fill="black"/>
<path d="M1011.66 336.928C1011.66 337.62 1011.71 338.122 1011.82 338.435C1011.94 338.748 1012.15 338.96 1012.46 339.072C1012.8 339.183 1013.32 339.239 1014.04 339.239C1014.1 339.239 1014.14 339.306 1014.14 339.44C1014.14 339.574 1014.1 339.641 1014.04 339.641C1013.3 339.641 1012.72 339.63 1012.29 339.608L1009.75 339.574L1007.27 339.608C1006.82 339.63 1006.22 339.641 1005.46 339.641C1005.41 339.641 1005.39 339.574 1005.39 339.44C1005.39 339.306 1005.41 339.239 1005.46 339.239C1006.17 339.239 1006.7 339.183 1007.03 339.072C1007.37 338.96 1007.59 338.748 1007.7 338.435C1007.84 338.1 1007.9 337.598 1007.9 336.928V321.416C1007.9 320.746 1007.84 320.254 1007.7 319.942C1007.59 319.629 1007.37 319.417 1007.03 319.305C1006.7 319.171 1006.17 319.104 1005.46 319.104C1005.41 319.104 1005.39 319.037 1005.39 318.903C1005.39 318.769 1005.41 318.702 1005.46 318.702L1007.27 318.735C1008.3 318.78 1009.12 318.802 1009.75 318.802C1010.44 318.802 1011.3 318.78 1012.33 318.735L1014.04 318.702C1014.1 318.702 1014.14 318.769 1014.14 318.903C1014.14 319.037 1014.1 319.104 1014.04 319.104C1013.34 319.104 1012.83 319.171 1012.49 319.305C1012.16 319.439 1011.94 319.674 1011.82 320.009C1011.71 320.321 1011.66 320.813 1011.66 321.483V336.928Z" fill="black"/>
<path d="M1039.73 318.702C1039.77 318.702 1039.79 318.769 1039.79 318.903C1039.79 319.037 1039.77 319.104 1039.73 319.104C1038.83 319.104 1038.13 319.461 1037.62 320.176C1037.1 320.868 1036.84 321.807 1036.84 322.99V340.144C1036.84 340.211 1036.79 340.256 1036.68 340.278C1036.59 340.3 1036.52 340.289 1036.48 340.244L1020.76 322.354V335.386C1020.76 336.57 1021.01 337.508 1021.5 338.201C1021.99 338.893 1022.67 339.239 1023.54 339.239C1023.59 339.239 1023.61 339.306 1023.61 339.44C1023.61 339.574 1023.59 339.641 1023.54 339.641C1022.92 339.641 1022.44 339.63 1022.1 339.608L1020.29 339.574L1018.22 339.608C1017.84 339.63 1017.29 339.641 1016.58 339.641C1016.51 339.641 1016.47 339.574 1016.47 339.44C1016.47 339.306 1016.51 339.239 1016.58 339.239C1017.56 339.239 1018.33 338.893 1018.89 338.201C1019.47 337.508 1019.76 336.57 1019.76 335.386V321.215C1019.02 320.411 1018.38 319.863 1017.85 319.573C1017.33 319.26 1016.8 319.104 1016.24 319.104C1016.2 319.104 1016.17 319.037 1016.17 318.903C1016.17 318.769 1016.2 318.702 1016.24 318.702L1017.65 318.735C1017.94 318.758 1018.36 318.769 1018.92 318.769L1021.47 318.735C1021.78 318.713 1022.16 318.702 1022.61 318.702C1022.78 318.702 1022.92 318.747 1023.01 318.836C1023.1 318.925 1023.25 319.115 1023.48 319.405C1023.86 319.919 1024.12 320.265 1024.28 320.444L1035.87 333.812V322.99C1035.87 321.784 1035.63 320.835 1035.14 320.143C1034.64 319.45 1033.96 319.104 1033.09 319.104C1033.05 319.104 1033.03 319.037 1033.03 318.903C1033.03 318.769 1033.05 318.702 1033.09 318.702L1034.53 318.735C1035.25 318.78 1035.85 318.802 1036.34 318.802C1036.79 318.802 1037.41 318.78 1038.22 318.735L1039.73 318.702Z" fill="black"/>
<path d="M1056.76 334.314C1056.76 334.27 1056.8 334.247 1056.89 334.247C1056.96 334.247 1057.01 334.27 1057.06 334.314C1057.13 334.337 1057.16 334.359 1057.16 334.381C1056.94 336.123 1056.82 337.709 1056.82 339.139C1056.82 339.317 1056.79 339.451 1056.72 339.541C1056.66 339.608 1056.52 339.641 1056.32 339.641H1041.51C1041.45 339.641 1041.41 339.574 1041.41 339.44C1041.41 339.306 1041.45 339.239 1041.51 339.239C1042.23 339.239 1042.74 339.183 1043.05 339.072C1043.39 338.96 1043.61 338.748 1043.72 338.435C1043.84 338.1 1043.89 337.598 1043.89 336.928V321.416C1043.89 320.746 1043.84 320.254 1043.72 319.942C1043.61 319.629 1043.39 319.417 1043.05 319.305C1042.72 319.171 1042.21 319.104 1041.51 319.104C1041.45 319.104 1041.41 319.037 1041.41 318.903C1041.41 318.769 1041.45 318.702 1041.51 318.702H1055.72C1055.94 318.702 1056.05 318.802 1056.05 319.003L1056.12 323.459C1056.12 323.504 1056.05 323.538 1055.92 323.56C1055.81 323.582 1055.74 323.56 1055.72 323.493C1055.36 322.197 1054.76 321.237 1053.91 320.612C1053.06 319.986 1051.94 319.674 1050.56 319.674H1049.55C1048.88 319.674 1048.39 319.819 1048.08 320.109C1047.77 320.399 1047.61 320.846 1047.61 321.449V328.284H1050.39C1051.69 328.284 1052.68 328.06 1053.37 327.614C1054.07 327.167 1054.41 326.542 1054.41 325.738C1054.41 325.671 1054.47 325.637 1054.58 325.637C1054.71 325.637 1054.78 325.671 1054.78 325.738L1054.75 328.753L1054.78 330.361C1054.83 331.12 1054.85 331.723 1054.85 332.17C1054.85 332.215 1054.78 332.237 1054.65 332.237C1054.51 332.237 1054.45 332.215 1054.45 332.17C1054.45 331.254 1054.09 330.54 1053.37 330.026C1052.68 329.49 1051.68 329.222 1050.36 329.222H1047.61V336.794C1047.61 337.441 1047.73 337.921 1047.98 338.234C1048.23 338.547 1048.62 338.703 1049.15 338.703H1050.26C1052 338.703 1053.4 338.346 1054.45 337.631C1055.5 336.916 1056.27 335.811 1056.76 334.314Z" fill="black"/>
<path d="M852.969 351.485C852.969 351.518 852.941 351.54 852.885 351.552C852.829 351.552 852.796 351.535 852.784 351.501C852.751 350.909 852.572 350.452 852.248 350.128C851.924 349.793 851.494 349.625 850.958 349.625H849.937C849.557 349.625 849.272 349.653 849.082 349.709C848.892 349.765 848.758 349.865 848.68 350.01C848.613 350.156 848.58 350.368 848.58 350.647V354.316H850.272C850.864 354.316 851.282 354.226 851.528 354.048C851.785 353.858 851.913 353.556 851.913 353.143C851.913 353.121 851.947 353.109 852.014 353.109C852.081 353.109 852.114 353.121 852.114 353.143L852.098 354.5C852.098 354.824 852.103 355.069 852.114 355.237L852.131 356.041C852.131 356.063 852.098 356.074 852.031 356.074C851.964 356.074 851.93 356.063 851.93 356.041C851.93 355.55 851.796 355.198 851.528 354.986C851.271 354.773 850.836 354.667 850.221 354.667H848.58V358.319C848.58 358.677 848.624 358.939 848.714 359.107C848.814 359.263 849.004 359.375 849.283 359.442C849.562 359.509 850.004 359.542 850.607 359.542C850.64 359.542 850.657 359.576 850.657 359.643C850.657 359.71 850.64 359.743 850.607 359.743C850.149 359.743 849.791 359.737 849.535 359.726L848.027 359.71L846.888 359.726C846.687 359.737 846.402 359.743 846.034 359.743C846.011 359.743 846 359.71 846 359.643C846 359.576 846.011 359.542 846.034 359.542C846.458 359.542 846.771 359.514 846.972 359.458C847.173 359.402 847.307 359.296 847.374 359.14C847.452 358.972 847.491 358.721 847.491 358.386V350.63C847.491 350.295 847.452 350.05 847.374 349.893C847.307 349.737 847.173 349.631 846.972 349.575C846.782 349.508 846.475 349.474 846.05 349.474C846.028 349.474 846.017 349.441 846.017 349.374C846.017 349.307 846.028 349.273 846.05 349.273H852.784C852.885 349.273 852.935 349.324 852.935 349.424L852.969 351.485Z" fill="black"/>
<path d="M865.294 359.542C865.317 359.542 865.328 359.576 865.328 359.643C865.328 359.71 865.317 359.743 865.294 359.743H863.133C862.854 359.743 862.329 359.268 861.559 358.319C860.799 357.359 859.872 356.024 858.778 354.316C858.51 354.394 858.208 354.433 857.873 354.433C857.661 354.433 857.41 354.422 857.119 354.399V358.386C857.119 358.732 857.153 358.984 857.22 359.14C857.287 359.296 857.415 359.402 857.605 359.458C857.806 359.514 858.119 359.542 858.543 359.542C858.577 359.542 858.594 359.576 858.594 359.643C858.594 359.71 858.577 359.743 858.543 359.743C858.197 359.743 857.924 359.737 857.723 359.726L856.567 359.71L855.428 359.726C855.227 359.737 854.942 359.743 854.573 359.743C854.551 359.743 854.54 359.71 854.54 359.643C854.54 359.576 854.551 359.542 854.573 359.542C854.998 359.542 855.31 359.514 855.511 359.458C855.712 359.391 855.852 359.28 855.93 359.123C856.008 358.967 856.047 358.721 856.047 358.386V350.63C856.047 350.295 856.008 350.05 855.93 349.893C855.863 349.737 855.729 349.631 855.528 349.575C855.338 349.508 855.031 349.474 854.607 349.474C854.573 349.474 854.556 349.441 854.556 349.374C854.556 349.307 854.573 349.273 854.607 349.273L855.428 349.29C855.897 349.312 856.276 349.324 856.567 349.324C856.768 349.324 856.958 349.318 857.136 349.307C857.315 349.296 857.471 349.285 857.605 349.273C857.963 349.24 858.286 349.223 858.577 349.223C859.481 349.223 860.179 349.407 860.671 349.776C861.162 350.144 861.408 350.658 861.408 351.317C861.408 351.853 861.251 352.361 860.939 352.841C860.626 353.31 860.213 353.685 859.699 353.964C860.648 355.382 861.447 356.493 862.095 357.297C862.742 358.09 863.318 358.665 863.82 359.023C864.323 359.369 864.814 359.542 865.294 359.542ZM857.119 353.981C857.399 354.025 857.728 354.048 858.108 354.048C858.878 354.048 859.431 353.886 859.766 353.562C860.101 353.227 860.269 352.674 860.269 351.903C860.269 350.284 859.588 349.474 858.225 349.474C857.924 349.474 857.695 349.502 857.538 349.558C857.393 349.603 857.287 349.709 857.22 349.876C857.153 350.033 857.119 350.295 857.119 350.664V353.981Z" fill="black"/>
<path d="M873.081 357.247C873.081 357.225 873.103 357.214 873.148 357.214C873.182 357.214 873.21 357.219 873.232 357.23C873.265 357.242 873.282 357.258 873.282 357.281C873.182 357.984 873.131 358.721 873.131 359.492C873.131 359.581 873.109 359.648 873.064 359.693C873.031 359.726 872.964 359.743 872.863 359.743H865.844C865.822 359.743 865.811 359.71 865.811 359.643C865.811 359.576 865.822 359.542 865.844 359.542C866.269 359.542 866.576 359.514 866.766 359.458C866.967 359.402 867.101 359.296 867.168 359.14C867.246 358.972 867.285 358.721 867.285 358.386V350.63C867.285 350.295 867.246 350.05 867.168 349.893C867.101 349.737 866.967 349.631 866.766 349.575C866.576 349.508 866.269 349.474 865.844 349.474C865.822 349.474 865.811 349.441 865.811 349.374C865.811 349.307 865.822 349.273 865.844 349.273H872.579C872.679 349.273 872.729 349.324 872.729 349.424L872.763 351.485C872.763 351.518 872.735 351.54 872.679 351.552C872.623 351.552 872.59 351.535 872.579 351.501C872.545 350.909 872.366 350.452 872.043 350.128C871.719 349.793 871.289 349.625 870.753 349.625H869.731C869.34 349.625 869.05 349.659 868.86 349.726C868.681 349.782 868.553 349.888 868.474 350.044C868.407 350.189 868.374 350.412 868.374 350.714V354.115H870.418C870.954 354.115 871.333 354.025 871.557 353.847C871.791 353.668 871.909 353.366 871.909 352.942C871.909 352.92 871.942 352.908 872.009 352.908C872.076 352.908 872.11 352.92 872.11 352.942L872.093 354.299C872.093 354.623 872.098 354.868 872.11 355.036L872.126 355.84C872.126 355.862 872.093 355.873 872.026 355.873C871.959 355.873 871.925 355.862 871.925 355.84C871.925 355.349 871.802 354.997 871.557 354.785C871.322 354.572 870.926 354.466 870.367 354.466H868.374V358.319C868.374 358.632 868.407 358.861 868.474 359.006C868.541 359.151 868.664 359.252 868.843 359.308C869.022 359.363 869.301 359.391 869.681 359.391H871.021C871.557 359.391 872.003 359.201 872.361 358.822C872.718 358.442 872.958 357.917 873.081 357.247Z" fill="black"/>
<path d="M882.079 357.247C882.079 357.225 882.101 357.214 882.146 357.214C882.179 357.214 882.207 357.219 882.229 357.23C882.263 357.242 882.28 357.258 882.28 357.281C882.179 357.984 882.129 358.721 882.129 359.492C882.129 359.581 882.106 359.648 882.062 359.693C882.028 359.726 881.961 359.743 881.861 359.743H874.842C874.82 359.743 874.808 359.71 874.808 359.643C874.808 359.576 874.82 359.542 874.842 359.542C875.266 359.542 875.573 359.514 875.763 359.458C875.964 359.402 876.098 359.296 876.165 359.14C876.243 358.972 876.283 358.721 876.283 358.386V350.63C876.283 350.295 876.243 350.05 876.165 349.893C876.098 349.737 875.964 349.631 875.763 349.575C875.573 349.508 875.266 349.474 874.842 349.474C874.82 349.474 874.808 349.441 874.808 349.374C874.808 349.307 874.82 349.273 874.842 349.273H881.576C881.676 349.273 881.727 349.324 881.727 349.424L881.76 351.485C881.76 351.518 881.732 351.54 881.676 351.552C881.621 351.552 881.587 351.535 881.576 351.501C881.542 350.909 881.364 350.452 881.04 350.128C880.716 349.793 880.286 349.625 879.75 349.625H878.728C878.337 349.625 878.047 349.659 877.857 349.726C877.678 349.782 877.55 349.888 877.472 350.044C877.405 350.189 877.371 350.412 877.371 350.714V354.115H879.415C879.951 354.115 880.331 354.025 880.554 353.847C880.789 353.668 880.906 353.366 880.906 352.942C880.906 352.92 880.939 352.908 881.006 352.908C881.073 352.908 881.107 352.92 881.107 352.942L881.09 354.299C881.09 354.623 881.096 354.868 881.107 355.036L881.124 355.84C881.124 355.862 881.09 355.873 881.023 355.873C880.956 355.873 880.923 355.862 880.923 355.84C880.923 355.349 880.8 354.997 880.554 354.785C880.32 354.572 879.923 354.466 879.365 354.466H877.371V358.319C877.371 358.632 877.405 358.861 877.472 359.006C877.539 359.151 877.662 359.252 877.84 359.308C878.019 359.363 878.298 359.391 878.678 359.391H880.018C880.554 359.391 881.001 359.201 881.358 358.822C881.716 358.442 881.956 357.917 882.079 357.247Z" fill="black"/>
<path d="M899.14 359.542C899.173 359.542 899.19 359.576 899.19 359.643C899.19 359.71 899.173 359.743 899.14 359.743C898.793 359.743 898.52 359.737 898.319 359.726L897.163 359.71L895.94 359.726C895.739 359.737 895.471 359.743 895.136 359.743C895.103 359.743 895.086 359.71 895.086 359.643C895.086 359.576 895.103 359.542 895.136 359.542C895.572 359.542 895.89 359.514 896.091 359.458C896.292 359.402 896.426 359.296 896.493 359.14C896.571 358.972 896.61 358.721 896.61 358.386V354.466H890.178V358.386C890.178 358.721 890.211 358.972 890.278 359.14C890.356 359.296 890.496 359.402 890.697 359.458C890.898 359.514 891.216 359.542 891.652 359.542C891.674 359.542 891.685 359.576 891.685 359.643C891.685 359.71 891.674 359.743 891.652 359.743C891.306 359.743 891.032 359.737 890.831 359.726L889.625 359.71L888.469 359.726C888.268 359.737 887.989 359.743 887.631 359.743C887.609 359.743 887.598 359.71 887.598 359.643C887.598 359.576 887.609 359.542 887.631 359.542C888.056 359.542 888.368 359.514 888.569 359.458C888.782 359.402 888.921 359.296 888.988 359.14C889.066 358.972 889.106 358.721 889.106 358.386V350.63C889.106 350.295 889.066 350.05 888.988 349.893C888.921 349.737 888.787 349.631 888.586 349.575C888.385 349.508 888.073 349.474 887.648 349.474C887.626 349.474 887.615 349.441 887.615 349.374C887.615 349.307 887.626 349.273 887.648 349.273L888.502 349.29C888.972 349.312 889.346 349.324 889.625 349.324C889.949 349.324 890.356 349.312 890.848 349.29L891.652 349.273C891.674 349.273 891.685 349.307 891.685 349.374C891.685 349.441 891.674 349.474 891.652 349.474C891.227 349.474 890.909 349.508 890.697 349.575C890.496 349.642 890.356 349.759 890.278 349.927C890.211 350.083 890.178 350.329 890.178 350.664V354.115H896.61V350.664C896.61 350.329 896.571 350.083 896.493 349.927C896.426 349.759 896.292 349.642 896.091 349.575C895.89 349.508 895.572 349.474 895.136 349.474C895.103 349.474 895.086 349.441 895.086 349.374C895.086 349.307 895.103 349.273 895.136 349.273L895.94 349.29C896.431 349.312 896.839 349.324 897.163 349.324C897.465 349.324 897.85 349.312 898.319 349.29L899.14 349.273C899.173 349.273 899.19 349.307 899.19 349.374C899.19 349.441 899.173 349.474 899.14 349.474C898.715 349.474 898.403 349.508 898.202 349.575C898.001 349.631 897.861 349.737 897.783 349.893C897.716 350.05 897.682 350.295 897.682 350.63V358.386C897.682 358.721 897.716 358.972 897.783 359.14C897.861 359.296 898.001 359.402 898.202 359.458C898.403 359.514 898.715 359.542 899.14 359.542Z" fill="black"/>
<path d="M909.338 351.116C909.338 350.022 908.852 349.474 907.88 349.474C907.847 349.474 907.83 349.441 907.83 349.374C907.83 349.307 907.847 349.273 907.88 349.273L908.601 349.29C909.003 349.312 909.321 349.324 909.556 349.324C909.745 349.324 910.019 349.312 910.376 349.29L911.08 349.273C911.102 349.273 911.113 349.307 911.113 349.374C911.113 349.441 911.102 349.474 911.08 349.474C910.187 349.474 909.74 350.022 909.74 351.116V355.873C909.74 357.158 909.382 358.163 908.668 358.889C907.953 359.603 906.993 359.961 905.786 359.961C904.96 359.961 904.234 359.799 903.609 359.475C902.995 359.151 902.514 358.693 902.168 358.101C901.833 357.498 901.666 356.795 901.666 355.991V350.63C901.666 350.295 901.632 350.05 901.565 349.893C901.498 349.737 901.364 349.631 901.163 349.575C900.973 349.508 900.666 349.474 900.242 349.474C900.219 349.474 900.208 349.441 900.208 349.374C900.208 349.307 900.219 349.273 900.242 349.273L901.063 349.29C901.532 349.312 901.911 349.324 902.202 349.324C902.514 349.324 902.905 349.312 903.374 349.29L904.178 349.273C904.212 349.273 904.229 349.307 904.229 349.374C904.229 349.441 904.212 349.474 904.178 349.474C903.765 349.474 903.458 349.508 903.257 349.575C903.056 349.642 902.922 349.759 902.855 349.927C902.788 350.083 902.754 350.329 902.754 350.664V355.404C902.754 356.711 903.05 357.716 903.642 358.42C904.245 359.112 905.083 359.458 906.155 359.458C907.16 359.458 907.942 359.146 908.5 358.52C909.059 357.884 909.338 357.007 909.338 355.89V351.116Z" fill="black"/>
<path d="M925.055 359.542C925.088 359.542 925.105 359.576 925.105 359.643C925.105 359.71 925.088 359.743 925.055 359.743C924.709 359.743 924.435 359.737 924.234 359.726L923.078 359.71L922.006 359.726C921.827 359.737 921.576 359.743 921.252 359.743C921.23 359.743 921.219 359.71 921.219 359.643C921.219 359.576 921.23 359.542 921.252 359.542C921.632 359.542 921.911 359.514 922.09 359.458C922.28 359.391 922.402 359.28 922.458 359.123C922.525 358.967 922.548 358.721 922.525 358.386L922.224 350.764L918.404 359.626C918.382 359.67 918.337 359.693 918.27 359.693C918.215 359.693 918.164 359.67 918.12 359.626L913.999 350.865L913.848 357.917C913.837 358.509 913.937 358.928 914.15 359.174C914.362 359.419 914.736 359.542 915.272 359.542C915.294 359.542 915.305 359.576 915.305 359.643C915.305 359.71 915.294 359.743 915.272 359.743C914.959 359.743 914.719 359.737 914.552 359.726L913.647 359.71L912.776 359.726C912.62 359.737 912.396 359.743 912.106 359.743C912.083 359.743 912.072 359.71 912.072 359.643C912.072 359.576 912.083 359.542 912.106 359.542C912.575 359.542 912.91 359.419 913.111 359.174C913.323 358.917 913.435 358.498 913.446 357.917L913.597 350.144C913.262 349.698 912.804 349.474 912.223 349.474C912.201 349.474 912.19 349.441 912.19 349.374C912.19 349.307 912.201 349.273 912.223 349.273L912.843 349.29C912.955 349.301 913.111 349.307 913.312 349.307C913.513 349.307 913.68 349.301 913.814 349.29C913.96 349.279 914.071 349.273 914.15 349.273C914.295 349.273 914.412 349.329 914.501 349.441C914.602 349.541 914.741 349.776 914.92 350.144L918.656 358.018L922.307 349.692C922.43 349.413 922.598 349.273 922.81 349.273C922.866 349.273 922.944 349.279 923.045 349.29C923.156 349.301 923.301 349.307 923.48 349.307L924.267 349.29C924.39 349.279 924.575 349.273 924.82 349.273C924.854 349.273 924.87 349.307 924.87 349.374C924.87 349.441 924.854 349.474 924.82 349.474C924.262 349.474 923.86 349.558 923.614 349.726C923.38 349.882 923.268 350.184 923.279 350.63L923.614 358.386C923.625 358.732 923.664 358.984 923.731 359.14C923.81 359.296 923.944 359.402 924.133 359.458C924.323 359.514 924.63 359.542 925.055 359.542Z" fill="black"/>
<path d="M937.165 359.542C937.21 359.542 937.232 359.576 937.232 359.643C937.232 359.71 937.21 359.743 937.165 359.743C936.953 359.743 936.623 359.732 936.177 359.71C935.73 359.687 935.406 359.676 935.205 359.676C934.959 359.676 934.647 359.687 934.267 359.71C933.91 359.732 933.636 359.743 933.446 359.743C933.402 359.743 933.379 359.71 933.379 359.643C933.379 359.576 933.402 359.542 933.446 359.542C933.859 359.542 934.161 359.503 934.351 359.425C934.541 359.347 934.636 359.213 934.636 359.023C934.636 358.866 934.563 358.626 934.418 358.302L932.491 354.198H929.325L927.885 357.616C927.728 357.995 927.65 358.308 927.65 358.554C927.65 359.213 928.197 359.542 929.292 359.542C929.348 359.542 929.376 359.576 929.376 359.643C929.376 359.71 929.348 359.743 929.292 359.743C929.091 359.743 928.8 359.732 928.421 359.71C927.996 359.687 927.628 359.676 927.315 359.676C927.025 359.676 926.69 359.687 926.31 359.71C925.975 359.732 925.696 359.743 925.472 359.743C925.417 359.743 925.389 359.71 925.389 359.643C925.389 359.576 925.417 359.542 925.472 359.542C925.785 359.542 926.048 359.486 926.26 359.375C926.483 359.252 926.69 359.045 926.88 358.755C927.081 358.453 927.298 358.023 927.533 357.465L931.067 349.123C931.09 349.089 931.129 349.072 931.185 349.072C931.241 349.072 931.274 349.089 931.285 349.123L935.239 357.448C935.618 358.275 935.942 358.833 936.21 359.123C936.478 359.402 936.796 359.542 937.165 359.542ZM929.476 353.847H932.324L930.816 350.664L929.476 353.847Z" fill="black"/>
<path d="M949.011 349.273C949.044 349.273 949.061 349.307 949.061 349.374C949.061 349.441 949.044 349.474 949.011 349.474C948.542 349.474 948.201 349.603 947.989 349.86C947.777 350.117 947.671 350.535 947.671 351.116V359.944C947.671 359.966 947.643 359.983 947.587 359.994C947.531 360.006 947.492 360 947.47 359.978L939.764 350.647L939.613 350.479V357.917C939.613 358.498 939.714 358.917 939.915 359.174C940.127 359.419 940.462 359.542 940.92 359.542C940.953 359.542 940.97 359.576 940.97 359.643C940.97 359.71 940.953 359.743 940.92 359.743C940.641 359.743 940.428 359.737 940.283 359.726L939.446 359.71L938.591 359.726C938.435 359.737 938.206 359.743 937.905 359.743C937.882 359.743 937.871 359.71 937.871 359.643C937.871 359.576 937.882 359.542 937.905 359.542C938.385 359.542 938.725 359.419 938.926 359.174C939.127 358.917 939.228 358.498 939.228 357.917V350.077C938.792 349.675 938.351 349.474 937.905 349.474C937.871 349.474 937.854 349.441 937.854 349.374C937.854 349.307 937.871 349.273 937.905 349.273L938.524 349.29C938.658 349.301 938.843 349.307 939.077 349.307C939.323 349.307 939.524 349.301 939.68 349.29C939.837 349.279 939.959 349.273 940.049 349.273C940.138 349.273 940.2 349.296 940.233 349.34C940.278 349.374 940.345 349.458 940.434 349.592C940.568 349.793 940.702 349.977 940.836 350.144L947.285 358.068V351.116C947.285 350.535 947.185 350.117 946.984 349.86C946.794 349.603 946.47 349.474 946.012 349.474C945.99 349.474 945.979 349.441 945.979 349.374C945.979 349.307 945.99 349.273 946.012 349.273L946.666 349.29C947.001 349.312 947.274 349.324 947.486 349.324C947.687 349.324 947.967 349.312 948.324 349.29L949.011 349.273Z" fill="black"/>
<path d="M950.109 349.558C950.098 349.435 950.237 349.318 950.528 349.206C950.818 349.084 951.058 349.022 951.248 349.022C951.349 349.022 951.393 349.044 951.382 349.089L950.511 353.612C950.489 353.634 950.45 353.651 950.394 353.662C950.338 353.673 950.31 353.662 950.31 353.629L950.109 349.558Z" fill="black"/>
<path d="M954.157 351.233C954.157 351.669 954.263 352.049 954.475 352.372C954.688 352.696 954.944 352.97 955.246 353.193C955.547 353.405 955.972 353.679 956.519 354.014C957.1 354.36 957.552 354.651 957.876 354.885C958.2 355.12 958.473 355.421 958.697 355.79C958.931 356.147 959.048 356.577 959.048 357.08C959.048 357.616 958.914 358.101 958.646 358.537C958.378 358.972 957.982 359.319 957.457 359.576C956.943 359.821 956.324 359.944 955.598 359.944C954.738 359.944 953.95 359.749 953.236 359.358C953.18 359.324 953.141 359.285 953.118 359.241C953.107 359.196 953.096 359.129 953.085 359.039L952.867 356.761C952.856 356.717 952.878 356.689 952.934 356.678C953.001 356.666 953.04 356.683 953.051 356.728C953.23 357.532 953.56 358.224 954.04 358.805C954.531 359.386 955.179 359.676 955.983 359.676C956.541 359.676 957.01 359.525 957.39 359.224C957.781 358.911 957.976 358.42 957.976 357.75C957.976 357.247 957.865 356.812 957.641 356.443C957.418 356.074 957.144 355.773 956.821 355.538C956.508 355.293 956.078 355.008 955.531 354.684C954.995 354.36 954.57 354.081 954.258 353.847C953.956 353.612 953.699 353.316 953.487 352.959C953.275 352.601 953.169 352.183 953.169 351.702C953.169 351.144 953.314 350.669 953.604 350.278C953.906 349.876 954.291 349.58 954.76 349.391C955.24 349.19 955.748 349.089 956.284 349.089C956.943 349.089 957.597 349.223 958.244 349.491C958.412 349.547 958.496 349.642 958.496 349.776L958.613 351.702C958.613 351.747 958.585 351.769 958.529 351.769C958.473 351.769 958.44 351.747 958.429 351.702C958.339 351.122 958.099 350.586 957.708 350.094C957.317 349.592 956.754 349.34 956.016 349.34C955.391 349.34 954.922 349.525 954.609 349.893C954.308 350.251 954.157 350.697 954.157 351.233Z" fill="black"/>
<path d="M975.592 359.542C975.637 359.542 975.659 359.576 975.659 359.643C975.659 359.71 975.637 359.743 975.592 359.743C975.38 359.743 975.05 359.732 974.604 359.71C974.157 359.687 973.833 359.676 973.632 359.676C973.386 359.676 973.074 359.687 972.694 359.71C972.337 359.732 972.063 359.743 971.873 359.743C971.829 359.743 971.806 359.71 971.806 359.643C971.806 359.576 971.829 359.542 971.873 359.542C972.286 359.542 972.588 359.503 972.778 359.425C972.968 359.347 973.063 359.213 973.063 359.023C973.063 358.866 972.99 358.626 972.845 358.302L970.918 354.198H967.752L966.312 357.616C966.155 357.995 966.077 358.308 966.077 358.554C966.077 359.213 966.624 359.542 967.719 359.542C967.775 359.542 967.803 359.576 967.803 359.643C967.803 359.71 967.775 359.743 967.719 359.743C967.518 359.743 967.227 359.732 966.848 359.71C966.423 359.687 966.055 359.676 965.742 359.676C965.452 359.676 965.117 359.687 964.737 359.71C964.402 359.732 964.123 359.743 963.899 359.743C963.844 359.743 963.816 359.71 963.816 359.643C963.816 359.576 963.844 359.542 963.899 359.542C964.212 359.542 964.475 359.486 964.687 359.375C964.91 359.252 965.117 359.045 965.307 358.755C965.508 358.453 965.725 358.023 965.96 357.465L969.494 349.123C969.517 349.089 969.556 349.072 969.612 349.072C969.668 349.072 969.701 349.089 969.712 349.123L973.666 357.448C974.045 358.275 974.369 358.833 974.637 359.123C974.905 359.402 975.223 359.542 975.592 359.542ZM967.903 353.847H970.751L969.243 350.664L967.903 353.847Z" fill="black"/>
<path d="M978.074 351.233C978.074 351.669 978.18 352.049 978.392 352.372C978.604 352.696 978.861 352.97 979.163 353.193C979.464 353.405 979.888 353.679 980.436 354.014C981.016 354.36 981.469 354.651 981.793 354.885C982.116 355.12 982.39 355.421 982.613 355.79C982.848 356.147 982.965 356.577 982.965 357.08C982.965 357.616 982.831 358.101 982.563 358.537C982.295 358.972 981.899 359.319 981.374 359.576C980.86 359.821 980.24 359.944 979.514 359.944C978.654 359.944 977.867 359.749 977.152 359.358C977.097 359.324 977.057 359.285 977.035 359.241C977.024 359.196 977.013 359.129 977.002 359.039L976.784 356.761C976.773 356.717 976.795 356.689 976.851 356.678C976.918 356.666 976.957 356.683 976.968 356.728C977.147 357.532 977.476 358.224 977.956 358.805C978.448 359.386 979.096 359.676 979.9 359.676C980.458 359.676 980.927 359.525 981.307 359.224C981.698 358.911 981.893 358.42 981.893 357.75C981.893 357.247 981.781 356.812 981.558 356.443C981.335 356.074 981.061 355.773 980.737 355.538C980.425 355.293 979.995 355.008 979.447 354.684C978.911 354.36 978.487 354.081 978.174 353.847C977.873 353.612 977.616 353.316 977.404 352.959C977.191 352.601 977.085 352.183 977.085 351.702C977.085 351.144 977.231 350.669 977.521 350.278C977.822 349.876 978.208 349.58 978.677 349.391C979.157 349.19 979.665 349.089 980.201 349.089C980.86 349.089 981.513 349.223 982.161 349.491C982.329 349.547 982.412 349.642 982.412 349.776L982.53 351.702C982.53 351.747 982.502 351.769 982.446 351.769C982.39 351.769 982.357 351.747 982.345 351.702C982.256 351.122 982.016 350.586 981.625 350.094C981.234 349.592 980.67 349.34 979.933 349.34C979.308 349.34 978.839 349.525 978.526 349.893C978.224 350.251 978.074 350.697 978.074 351.233Z" fill="black"/>
<path d="M986.302 351.233C986.302 351.669 986.408 352.049 986.62 352.372C986.833 352.696 987.09 352.97 987.391 353.193C987.693 353.405 988.117 353.679 988.664 354.014C989.245 354.36 989.697 354.651 990.021 354.885C990.345 355.12 990.619 355.421 990.842 355.79C991.076 356.147 991.194 356.577 991.194 357.08C991.194 357.616 991.06 358.101 990.792 358.537C990.524 358.972 990.127 359.319 989.602 359.576C989.089 359.821 988.469 359.944 987.743 359.944C986.883 359.944 986.096 359.749 985.381 359.358C985.325 359.324 985.286 359.285 985.264 359.241C985.252 359.196 985.241 359.129 985.23 359.039L985.012 356.761C985.001 356.717 985.024 356.689 985.079 356.678C985.146 356.666 985.185 356.683 985.197 356.728C985.375 357.532 985.705 358.224 986.185 358.805C986.676 359.386 987.324 359.676 988.128 359.676C988.687 359.676 989.156 359.525 989.535 359.224C989.926 358.911 990.122 358.42 990.122 357.75C990.122 357.247 990.01 356.812 989.787 356.443C989.563 356.074 989.29 355.773 988.966 355.538C988.653 355.293 988.223 355.008 987.676 354.684C987.14 354.36 986.715 354.081 986.403 353.847C986.101 353.612 985.844 353.316 985.632 352.959C985.42 352.601 985.314 352.183 985.314 351.702C985.314 351.144 985.459 350.669 985.749 350.278C986.051 349.876 986.436 349.58 986.905 349.391C987.385 349.19 987.894 349.089 988.43 349.089C989.089 349.089 989.742 349.223 990.39 349.491C990.557 349.547 990.641 349.642 990.641 349.776L990.758 351.702C990.758 351.747 990.73 351.769 990.674 351.769C990.619 351.769 990.585 351.747 990.574 351.702C990.485 351.122 990.244 350.586 989.854 350.094C989.463 349.592 988.899 349.34 988.162 349.34C987.536 349.34 987.067 349.525 986.755 349.893C986.453 350.251 986.302 350.697 986.302 351.233Z" fill="black"/>
<path d="M998.233 359.944C997.194 359.944 996.267 359.704 995.452 359.224C994.648 358.732 994.023 358.074 993.576 357.247C993.14 356.41 992.923 355.499 992.923 354.517C992.923 353.366 993.213 352.384 993.794 351.568C994.374 350.742 995.117 350.122 996.022 349.709C996.937 349.296 997.87 349.089 998.819 349.089C999.88 349.089 1000.81 349.34 1001.62 349.843C1002.42 350.334 1003.03 350.988 1003.46 351.803C1003.89 352.618 1004.11 353.484 1004.11 354.399C1004.11 355.416 1003.84 356.348 1003.31 357.197C1002.77 358.046 1002.05 358.716 1001.15 359.207C1000.25 359.698 999.283 359.944 998.233 359.944ZM998.819 359.592C999.579 359.592 1000.26 359.408 1000.86 359.039C1001.48 358.671 1001.96 358.129 1002.3 357.415C1002.66 356.7 1002.84 355.851 1002.84 354.868C1002.84 353.819 1002.64 352.886 1002.25 352.071C1001.86 351.256 1001.31 350.619 1000.59 350.161C999.891 349.703 999.065 349.474 998.116 349.474C996.887 349.474 995.927 349.871 995.234 350.664C994.542 351.457 994.196 352.546 994.196 353.93C994.196 354.98 994.391 355.94 994.782 356.812C995.173 357.671 995.72 358.353 996.424 358.855C997.127 359.347 997.926 359.592 998.819 359.592Z" fill="black"/>
<path d="M1011.88 349.089C1012.42 349.089 1012.96 349.139 1013.5 349.24C1014.05 349.34 1014.49 349.486 1014.81 349.675C1014.91 349.72 1014.97 349.77 1014.99 349.826C1015.03 349.871 1015.05 349.955 1015.06 350.077L1015.25 351.954C1015.25 351.987 1015.22 352.009 1015.16 352.021C1015.11 352.021 1015.07 352.004 1015.06 351.97C1014.82 351.11 1014.36 350.479 1013.69 350.077C1013.03 349.664 1012.21 349.458 1011.23 349.458C1010.38 349.458 1009.63 349.647 1009 350.027C1008.36 350.396 1007.87 350.921 1007.52 351.602C1007.18 352.283 1007 353.07 1007 353.964C1007 355.002 1007.22 355.963 1007.64 356.845C1008.08 357.727 1008.66 358.425 1009.38 358.939C1010.12 359.453 1010.91 359.71 1011.76 359.71C1012.57 359.71 1013.26 359.492 1013.86 359.056C1014.45 358.61 1014.9 357.928 1015.21 357.013C1015.21 356.979 1015.23 356.962 1015.28 356.962C1015.31 356.962 1015.34 356.968 1015.36 356.979C1015.4 356.99 1015.41 357.007 1015.41 357.029L1015.18 358.922C1015.16 359.056 1015.13 359.146 1015.1 359.19C1015.07 359.224 1015.01 359.263 1014.91 359.308C1013.91 359.732 1012.85 359.944 1011.73 359.944C1010.39 359.944 1009.27 359.676 1008.36 359.14C1007.47 358.593 1006.81 357.9 1006.38 357.063C1005.96 356.225 1005.75 355.343 1005.75 354.416C1005.75 353.389 1006.03 352.467 1006.6 351.652C1007.17 350.837 1007.93 350.206 1008.86 349.759C1009.8 349.312 1010.81 349.089 1011.88 349.089Z" fill="black"/>
<path d="M1019.47 358.386C1019.47 358.721 1019.5 358.972 1019.57 359.14C1019.63 359.296 1019.76 359.402 1019.95 359.458C1020.15 359.514 1020.47 359.542 1020.89 359.542C1020.92 359.542 1020.94 359.576 1020.94 359.643C1020.94 359.71 1020.92 359.743 1020.89 359.743C1020.56 359.743 1020.29 359.737 1020.09 359.726L1018.9 359.71L1017.74 359.726C1017.54 359.737 1017.27 359.743 1016.92 359.743C1016.89 359.743 1016.87 359.71 1016.87 359.643C1016.87 359.576 1016.89 359.542 1016.92 359.542C1017.34 359.542 1017.65 359.514 1017.84 359.458C1018.04 359.402 1018.18 359.296 1018.24 359.14C1018.32 358.972 1018.36 358.721 1018.36 358.386V350.63C1018.36 350.295 1018.32 350.05 1018.24 349.893C1018.18 349.737 1018.04 349.631 1017.84 349.575C1017.65 349.508 1017.34 349.474 1016.92 349.474C1016.89 349.474 1016.87 349.441 1016.87 349.374C1016.87 349.307 1016.89 349.273 1016.92 349.273L1017.74 349.29C1018.21 349.312 1018.6 349.324 1018.9 349.324C1019.23 349.324 1019.63 349.312 1020.1 349.29L1020.89 349.273C1020.92 349.273 1020.94 349.307 1020.94 349.374C1020.94 349.441 1020.92 349.474 1020.89 349.474C1020.48 349.474 1020.17 349.508 1019.97 349.575C1019.78 349.642 1019.65 349.759 1019.57 349.927C1019.5 350.083 1019.47 350.329 1019.47 350.664V358.386Z" fill="black"/>
<path d="M1033.4 359.542C1033.45 359.542 1033.47 359.576 1033.47 359.643C1033.47 359.71 1033.45 359.743 1033.4 359.743C1033.19 359.743 1032.86 359.732 1032.42 359.71C1031.97 359.687 1031.65 359.676 1031.44 359.676C1031.2 359.676 1030.89 359.687 1030.51 359.71C1030.15 359.732 1029.88 359.743 1029.69 359.743C1029.64 359.743 1029.62 359.71 1029.62 359.643C1029.62 359.576 1029.64 359.542 1029.69 359.542C1030.1 359.542 1030.4 359.503 1030.59 359.425C1030.78 359.347 1030.87 359.213 1030.87 359.023C1030.87 358.866 1030.8 358.626 1030.66 358.302L1028.73 354.198H1025.56L1024.12 357.616C1023.97 357.995 1023.89 358.308 1023.89 358.554C1023.89 359.213 1024.44 359.542 1025.53 359.542C1025.59 359.542 1025.61 359.576 1025.61 359.643C1025.61 359.71 1025.59 359.743 1025.53 359.743C1025.33 359.743 1025.04 359.732 1024.66 359.71C1024.24 359.687 1023.87 359.676 1023.55 359.676C1023.26 359.676 1022.93 359.687 1022.55 359.71C1022.21 359.732 1021.94 359.743 1021.71 359.743C1021.66 359.743 1021.63 359.71 1021.63 359.643C1021.63 359.576 1021.66 359.542 1021.71 359.542C1022.02 359.542 1022.29 359.486 1022.5 359.375C1022.72 359.252 1022.93 359.045 1023.12 358.755C1023.32 358.453 1023.54 358.023 1023.77 357.465L1027.31 349.123C1027.33 349.089 1027.37 349.072 1027.42 349.072C1027.48 349.072 1027.51 349.089 1027.52 349.123L1031.48 357.448C1031.86 358.275 1032.18 358.833 1032.45 359.123C1032.72 359.402 1033.04 359.542 1033.4 359.542ZM1025.72 353.847H1028.56L1027.06 350.664L1025.72 353.847Z" fill="black"/>
<path d="M1035.45 349.575C1034.74 349.575 1034.21 349.754 1033.85 350.111C1033.51 350.468 1033.26 351.077 1033.1 351.937C1033.1 351.959 1033.07 351.97 1033 351.97C1032.94 351.97 1032.92 351.959 1032.92 351.937C1032.96 351.535 1033.01 351.01 1033.07 350.362C1033.12 349.715 1033.15 349.229 1033.15 348.905C1033.15 348.849 1033.18 348.821 1033.23 348.821C1033.3 348.821 1033.33 348.849 1033.33 348.905C1033.33 349.151 1033.64 349.273 1034.24 349.273C1035.19 349.307 1036.31 349.324 1037.61 349.324C1038.27 349.324 1038.96 349.312 1039.7 349.29L1040.84 349.273C1041.24 349.273 1041.54 349.245 1041.73 349.19C1041.93 349.134 1042.06 349.022 1042.11 348.855C1042.12 348.81 1042.16 348.788 1042.21 348.788C1042.27 348.788 1042.3 348.81 1042.3 348.855C1042.26 349.178 1042.23 349.67 1042.2 350.329C1042.16 350.988 1042.15 351.524 1042.15 351.937C1042.15 351.959 1042.11 351.97 1042.05 351.97C1041.98 351.97 1041.94 351.959 1041.94 351.937C1041.91 351.066 1041.73 350.457 1041.41 350.111C1041.08 349.754 1040.55 349.575 1039.8 349.575C1039.3 349.575 1038.94 349.597 1038.73 349.642C1038.52 349.687 1038.37 349.782 1038.29 349.927C1038.21 350.072 1038.18 350.318 1038.18 350.664V358.386C1038.18 358.732 1038.21 358.984 1038.29 359.14C1038.37 359.296 1038.52 359.402 1038.75 359.458C1038.97 359.514 1039.32 359.542 1039.8 359.542C1039.83 359.542 1039.85 359.576 1039.85 359.643C1039.85 359.71 1039.83 359.743 1039.8 359.743C1039.43 359.743 1039.14 359.737 1038.91 359.726L1037.61 359.71L1036.35 359.726C1036.13 359.737 1035.82 359.743 1035.43 359.743C1035.41 359.743 1035.39 359.71 1035.39 359.643C1035.39 359.576 1035.41 359.542 1035.43 359.542C1035.91 359.542 1036.26 359.514 1036.48 359.458C1036.71 359.402 1036.86 359.296 1036.94 359.14C1037.03 358.972 1037.07 358.721 1037.07 358.386V350.63C1037.07 350.284 1037.03 350.044 1036.95 349.91C1036.87 349.765 1036.73 349.675 1036.52 349.642C1036.31 349.597 1035.95 349.575 1035.45 349.575Z" fill="black"/>
<path d="M1046.23 358.386C1046.23 358.721 1046.26 358.972 1046.33 359.14C1046.4 359.296 1046.53 359.402 1046.72 359.458C1046.92 359.514 1047.23 359.542 1047.65 359.542C1047.69 359.542 1047.7 359.576 1047.7 359.643C1047.7 359.71 1047.69 359.743 1047.65 359.743C1047.32 359.743 1047.05 359.737 1046.85 359.726L1045.66 359.71L1044.5 359.726C1044.3 359.737 1044.03 359.743 1043.68 359.743C1043.65 359.743 1043.63 359.71 1043.63 359.643C1043.63 359.576 1043.65 359.542 1043.68 359.542C1044.11 359.542 1044.41 359.514 1044.6 359.458C1044.81 359.402 1044.94 359.296 1045.01 359.14C1045.08 358.972 1045.12 358.721 1045.12 358.386V350.63C1045.12 350.295 1045.08 350.05 1045.01 349.893C1044.94 349.737 1044.81 349.631 1044.6 349.575C1044.41 349.508 1044.11 349.474 1043.68 349.474C1043.65 349.474 1043.63 349.441 1043.63 349.374C1043.63 349.307 1043.65 349.273 1043.68 349.273L1044.5 349.29C1044.97 349.312 1045.36 349.324 1045.66 349.324C1046 349.324 1046.4 349.312 1046.87 349.29L1047.65 349.273C1047.69 349.273 1047.7 349.307 1047.7 349.374C1047.7 349.441 1047.69 349.474 1047.65 349.474C1047.24 349.474 1046.93 349.508 1046.73 349.575C1046.54 349.642 1046.41 349.759 1046.33 349.927C1046.26 350.083 1046.23 350.329 1046.23 350.664V358.386Z" fill="black"/>
<path d="M1054.59 359.944C1053.55 359.944 1052.62 359.704 1051.81 359.224C1051 358.732 1050.38 358.074 1049.93 357.247C1049.5 356.41 1049.28 355.499 1049.28 354.517C1049.28 353.366 1049.57 352.384 1050.15 351.568C1050.73 350.742 1051.47 350.122 1052.38 349.709C1053.29 349.296 1054.23 349.089 1055.18 349.089C1056.24 349.089 1057.17 349.34 1057.97 349.843C1058.78 350.334 1059.39 350.988 1059.82 351.803C1060.25 352.618 1060.47 353.484 1060.47 354.399C1060.47 355.416 1060.2 356.348 1059.66 357.197C1059.13 358.046 1058.41 358.716 1057.5 359.207C1056.61 359.698 1055.64 359.944 1054.59 359.944ZM1055.18 359.592C1055.93 359.592 1056.62 359.408 1057.22 359.039C1057.83 358.671 1058.31 358.129 1058.66 357.415C1059.02 356.7 1059.2 355.851 1059.2 354.868C1059.2 353.819 1059 352.886 1058.61 352.071C1058.22 351.256 1057.67 350.619 1056.95 350.161C1056.25 349.703 1055.42 349.474 1054.47 349.474C1053.24 349.474 1052.28 349.871 1051.59 350.664C1050.9 351.457 1050.55 352.546 1050.55 353.93C1050.55 354.98 1050.75 355.94 1051.14 356.812C1051.53 357.671 1052.08 358.353 1052.78 358.855C1053.48 359.347 1054.28 359.592 1055.18 359.592Z" fill="black"/>
<path d="M1073.08 349.273C1073.11 349.273 1073.13 349.307 1073.13 349.374C1073.13 349.441 1073.11 349.474 1073.08 349.474C1072.61 349.474 1072.27 349.603 1072.05 349.86C1071.84 350.117 1071.74 350.535 1071.74 351.116V359.944C1071.74 359.966 1071.71 359.983 1071.65 359.994C1071.6 360.006 1071.56 360 1071.54 359.978L1063.83 350.647L1063.68 350.479V357.917C1063.68 358.498 1063.78 358.917 1063.98 359.174C1064.19 359.419 1064.53 359.542 1064.99 359.542C1065.02 359.542 1065.04 359.576 1065.04 359.643C1065.04 359.71 1065.02 359.743 1064.99 359.743C1064.71 359.743 1064.49 359.737 1064.35 359.726L1063.51 359.71L1062.66 359.726C1062.5 359.737 1062.27 359.743 1061.97 359.743C1061.95 359.743 1061.94 359.71 1061.94 359.643C1061.94 359.576 1061.95 359.542 1061.97 359.542C1062.45 359.542 1062.79 359.419 1062.99 359.174C1063.19 358.917 1063.29 358.498 1063.29 357.917V350.077C1062.86 349.675 1062.42 349.474 1061.97 349.474C1061.94 349.474 1061.92 349.441 1061.92 349.374C1061.92 349.307 1061.94 349.273 1061.97 349.273L1062.59 349.29C1062.72 349.301 1062.91 349.307 1063.14 349.307C1063.39 349.307 1063.59 349.301 1063.75 349.29C1063.9 349.279 1064.03 349.273 1064.11 349.273C1064.2 349.273 1064.27 349.296 1064.3 349.34C1064.34 349.374 1064.41 349.458 1064.5 349.592C1064.63 349.793 1064.77 349.977 1064.9 350.144L1071.35 358.068V351.116C1071.35 350.535 1071.25 350.117 1071.05 349.86C1070.86 349.603 1070.54 349.474 1070.08 349.474C1070.06 349.474 1070.04 349.441 1070.04 349.374C1070.04 349.307 1070.06 349.273 1070.08 349.273L1070.73 349.29C1071.07 349.312 1071.34 349.324 1071.55 349.324C1071.75 349.324 1072.03 349.312 1072.39 349.29L1073.08 349.273Z" fill="black"/>
<path d="M1038.12 162.473C1038.12 162.473 1035.29 161.958 1028.09 160.529C1026.44 145.244 1024.89 124.62 1025.36 103.706C1026.29 62.3617 1038.12 37.822 1038.12 37.822L1010.97 55.7318C1010.97 55.7318 1007.95 84.6914 1007.95 109.894C1007.95 124.475 1009.43 143.499 1010.68 156.939C1000.94 155.036 990.292 153.137 981.244 151.969C977.75 139.462 972.446 124.805 969.847 115.653C968.625 111.342 966.883 104.725 965.06 97.1123C969.288 82.08 970.865 71.1294 971.4 54.1126C972.11 31.5665 959.631 0 959.631 0C959.631 0 939.681 26.8308 943.469 68.094C944.814 82.7565 949.752 100.847 954.08 114.878C948.668 127.953 943.895 135.656 937.351 141.091C928.573 148.383 917.37 148.208 917.37 148.208C917.37 148.208 918.303 151.41 918.488 153.367C918.677 155.325 916.996 159.772 916.996 159.772C916.996 159.772 931.935 156.569 940.529 156.213C949.118 155.857 965.742 155.681 965.742 155.681C965.742 155.681 971.528 182.719 971.343 196.953C971.159 211.183 967.797 217.055 967.797 217.055C967.797 217.055 959.951 207.624 955.467 201.576C950.988 195.528 946.689 179.517 946.689 176.495C946.689 173.469 948.559 168.309 948.559 168.309C948.559 168.309 935.86 168.841 928.199 169.554C920.543 170.267 907.47 173.113 907.47 173.113C907.47 173.113 909.7 146.796 911.764 111.648C914.008 73.4882 907.47 54.9876 907.47 54.9876L881.139 37.9167C881.342 38.1964 894.396 56.4985 894.396 112.451C894.396 145.362 888.606 185.389 888.606 185.389C888.606 185.389 901.868 180.23 917.181 177.916C932.498 175.602 940.529 178.804 940.529 178.804C940.529 178.804 931.376 196.597 940.903 214.917C948.18 228.926 959.631 244.093 959.631 244.093C959.631 244.093 968.166 233.778 977.508 216.166C984.724 202.559 985.804 188.208 985.231 176.315C988.005 176.378 991.983 176.585 997.508 177.104C1015.47 178.786 1031.4 185.285 1031.4 185.285C1031.4 185.285 1030.02 177.307 1028.56 164.809C1035.29 166.006 1038.12 166.532 1038.12 166.532V162.473ZM959.631 14.4605C959.631 14.4605 968.356 40.5777 968.621 50.0084C968.843 57.9778 968.365 71.4135 963.247 89.2421C960.112 75.2381 957.195 59.5699 956.774 48.9395C956.031 30.0826 959.631 14.4605 959.631 14.4605ZM930.211 151.518C930.211 151.518 946.367 143.743 956.457 122.414C958.232 127.917 959.719 132.305 960.533 134.885C962.503 141.14 963.971 147.22 964.733 150.584C945.429 149.773 930.211 151.518 930.211 151.518ZM1012.36 173.568C1012.36 173.568 1003.77 171.8 997.74 171.137C994.27 170.758 988.806 170.375 984.79 170.122C984.672 168.887 984.549 167.687 984.416 166.532C984.09 163.637 983.379 160.191 982.437 156.439C985.174 156.624 987.882 156.863 990.098 157.156C993.19 157.566 1001.82 159.266 1011.07 161.161C1011.8 168.643 1012.36 173.568 1012.36 173.568Z" fill="black"/>
</svg>
