<svg width="61" height="60" viewBox="0 0 61 60" fill="none" xmlns="http://www.w3.org/2000/svg">
<path d="M30.5681 0C13.6281 0 0.5 12.3805 0.5 29.1027C0.5 37.8491 4.09413 45.4076 9.94443 50.6288C10.9546 51.5373 10.7465 52.0635 10.9183 57.6731C10.9318 58.066 11.0413 58.4497 11.2371 58.7906C11.4329 59.1315 11.7092 59.4193 12.0418 59.6289C12.3745 59.8385 12.7533 59.9636 13.1454 59.9932C13.5374 60.0227 13.9307 59.956 14.291 59.7986C20.6918 56.9799 20.774 56.7573 21.8592 57.0525C40.4032 62.1564 60.5031 50.2889 60.5031 29.1027C60.5031 12.3805 47.5093 0 30.5681 0ZM48.6222 22.3959L39.7911 36.3769C39.4576 36.9026 39.0192 37.3538 38.5032 37.7021C37.9872 38.0505 37.4048 38.2885 36.7925 38.4013C36.1802 38.5141 35.5513 38.4992 34.945 38.3575C34.3388 38.2159 33.7683 37.9505 33.2694 37.5781L26.2432 32.3194C25.9291 32.0838 25.5471 31.9565 25.1545 31.9565C24.7619 31.9565 24.3798 32.0838 24.0657 32.3194L14.585 39.5101C13.3196 40.4694 11.6623 38.9536 12.5151 37.6144L21.3462 23.6335C21.6796 23.1076 22.118 22.6563 22.634 22.3078C23.15 21.9594 23.7324 21.7213 24.3447 21.6085C24.957 21.4957 25.5861 21.5106 26.1923 21.6524C26.7986 21.7941 27.3691 22.0596 27.8679 22.4322L34.8917 27.6897C35.2058 27.9253 35.5878 28.0526 35.9804 28.0526C36.3731 28.0526 36.7551 27.9253 37.0692 27.6897L46.5548 20.5063C47.8177 19.5409 49.4751 21.0555 48.6222 22.3959V22.3959Z" fill="black"/>
</svg>
