<svg width="33" height="32" viewBox="0 0 33 32" fill="none" xmlns="http://www.w3.org/2000/svg">
<path d="M32.0117 16C32.0117 7.16337 24.8484 0 16.0117 0C7.17509 0 0.0117188 7.16337 0.0117188 16C0.0117188 23.9864 5.86361 30.6071 13.5154 31.8101V20.6218H9.45434V16H13.5154V12.4726C13.5154 8.4658 15.9032 6.24986 19.5572 6.24986C21.3119 6.24986 23.1389 6.56642 23.1389 6.56642V10.5008H21.122C19.1321 10.5008 18.5171 11.7309 18.5171 12.9972V16H22.958L22.2525 20.6218H18.5261V31.801C26.1598 30.6071 32.0117 23.9864 32.0117 16Z" fill="black"/>
<path d="M22.2435 20.6218L22.949 15.9999H18.5081V12.9971C18.5081 11.7309 19.1321 10.5008 21.1129 10.5008H23.1299V6.56636C23.1299 6.56636 21.3029 6.2498 19.5482 6.2498C15.8942 6.2498 13.5064 8.46574 13.5064 12.4725V15.9999H9.44531V20.6218H13.5064V31.801C14.3204 31.9276 15.1525 31.9999 16.0027 31.9999C16.8529 31.9999 17.685 31.9366 18.499 31.801V20.6218H22.2435Z" fill="white"/>
</svg>
