<svg width="33" height="32" viewBox="0 0 33 32" fill="none" xmlns="http://www.w3.org/2000/svg">
<path d="M16.0117 32C24.8483 32 32.0117 24.8366 32.0117 16C32.0117 7.16344 24.8483 0 16.0117 0C7.17516 0 0.0117188 7.16344 0.0117188 16C0.0117188 24.8366 7.17516 32 16.0117 32Z" fill="black"/>
<path d="M20.9784 9.94897C20.3725 9.94897 19.875 10.4374 19.875 11.0524C19.875 11.6584 20.3634 12.1559 20.9784 12.1559C21.5844 12.1559 22.0819 11.6675 22.0819 11.0524C22.0819 10.4374 21.5844 9.94897 20.9784 9.94897Z" fill="white"/>
<path d="M16.0945 11.3601C13.5439 11.3601 11.4727 13.4313 11.4727 15.9819C11.4727 18.5325 13.5439 20.6037 16.0945 20.6037C18.6451 20.6037 20.7163 18.5325 20.7163 15.9819C20.7073 13.4313 18.636 11.3601 16.0945 11.3601ZM16.0945 18.9395C14.4664 18.9395 13.1369 17.61 13.1369 15.9819C13.1369 14.3539 14.4664 13.0243 16.0945 13.0243C17.7225 13.0243 19.0521 14.3539 19.0521 15.9819C19.0521 17.61 17.7225 18.9395 16.0945 18.9395Z" fill="white"/>
<path d="M19.7573 25.3612H12.2684C9.157 25.3612 6.63354 22.8287 6.63354 19.7263V12.2374C6.63354 9.126 9.157 6.60254 12.2684 6.60254H19.7573C22.8687 6.60254 25.3922 9.126 25.3922 12.2374V19.7263C25.3922 22.8287 22.8687 25.3612 19.7573 25.3612ZM12.2684 8.36625C10.1338 8.36625 8.39725 10.1028 8.39725 12.2374V19.7263C8.39725 21.8609 10.1338 23.5975 12.2684 23.5975H19.7573C21.8919 23.5975 23.6285 21.8609 23.6285 19.7263V12.2374C23.6285 10.1028 21.8919 8.36625 19.7573 8.36625H12.2684V8.36625Z" fill="white"/>
</svg>
