<svg width="33" height="32" viewBox="0 0 33 32" fill="none" xmlns="http://www.w3.org/2000/svg">
<path d="M16.0117 32C24.8483 32 32.0117 24.8366 32.0117 16C32.0117 7.16344 24.8483 0 16.0117 0C7.17516 0 0.0117188 7.16344 0.0117188 16C0.0117188 24.8366 7.17516 32 16.0117 32Z" fill="black"/>
<path d="M23.8012 9.50033C23.7395 9.32255 23.6661 9.27277 23.5523 9.2301C23.3034 9.13529 22.8815 9.27751 22.8815 9.27751C22.8815 9.27751 7.92681 14.6511 7.07347 15.2485C6.88858 15.3765 6.82695 15.45 6.79851 15.5377C6.65155 15.962 7.1114 16.1492 7.1114 16.1492L10.9656 17.4055C10.9656 17.4055 11.1102 17.4268 11.16 17.3937C12.037 16.839 19.9825 11.8233 20.44 11.655C20.5135 11.6337 20.5656 11.6574 20.5514 11.7071C20.3689 12.3519 13.4687 18.484 13.4687 18.484C13.4687 18.484 13.4427 18.5172 13.4261 18.5551L13.4166 18.5504L13.0563 22.3738C13.0563 22.3738 12.9046 23.5448 14.0779 22.3738C14.9052 21.5465 15.704 20.8568 16.1046 20.5202C17.4296 21.4351 18.8566 22.4473 19.4705 22.9759C19.7787 23.2414 20.0394 23.284 20.2504 23.2769C20.8335 23.2556 20.997 22.6132 20.997 22.6132C20.997 22.6132 23.723 11.6455 23.813 10.1759C23.8225 10.0313 23.8344 9.94121 23.8344 9.84166C23.8367 9.70418 23.8225 9.56433 23.8012 9.50033Z" fill="white"/>
</svg>
