<svg width="33" height="32" viewBox="0 0 33 32" fill="none" xmlns="http://www.w3.org/2000/svg">
<path d="M16.0117 32C24.8483 32 32.0117 24.8366 32.0117 16C32.0117 7.16344 24.8483 0 16.0117 0C7.17516 0 0.0117188 7.16344 0.0117188 16C0.0117188 24.8366 7.17516 32 16.0117 32Z" fill="black"/>
<path d="M24.5769 13.7117C24.5769 11.5862 22.8584 9.86772 20.7329 9.86772H10.9104C8.78489 9.86772 7.06641 11.5862 7.06641 13.7117V18.2883C7.06641 20.4138 8.78489 22.1323 10.9104 22.1323H20.7329C22.8584 22.1323 24.5769 20.4138 24.5769 18.2883V13.7117ZM18.7973 16.3437L14.3926 18.5235C14.2207 18.6139 13.6328 18.4963 13.6328 18.2973V13.8202C13.6328 13.6213 14.2207 13.4946 14.4016 13.5941L18.6164 15.8915C18.7973 15.991 18.9782 16.2442 18.7973 16.3437Z" fill="white"/>
</svg>
