<svg width="32" height="32" viewBox="0 0 32 32" fill="none" xmlns="http://www.w3.org/2000/svg">
<path d="M16 32C24.8366 32 32 24.8366 32 16C32 7.16344 24.8366 0 16 0C7.16344 0 0 7.16344 0 16C0 24.8366 7.16344 32 16 32Z" fill="#CCCCCC"/>
<path d="M23.7895 9.50033C23.7278 9.32255 23.6543 9.27277 23.5406 9.2301C23.2917 9.13529 22.8698 9.27751 22.8698 9.27751C22.8698 9.27751 7.91509 14.6511 7.06175 15.2485C6.87686 15.3765 6.81523 15.45 6.78679 15.5377C6.63983 15.962 7.09968 16.1492 7.09968 16.1492L10.9539 17.4055C10.9539 17.4055 11.0985 17.4268 11.1483 17.3937C12.0253 16.839 19.9708 11.8233 20.4283 11.655C20.5018 11.6337 20.5539 11.6574 20.5397 11.7071C20.3572 12.3519 13.457 18.484 13.457 18.484C13.457 18.484 13.4309 18.5172 13.4143 18.5551L13.4049 18.5504L13.0446 22.3738C13.0446 22.3738 12.8929 23.5448 14.0662 22.3738C14.8935 21.5465 15.6923 20.8568 16.0929 20.5202C17.4179 21.4351 18.8449 22.4473 19.4588 22.9759C19.7669 23.2414 20.0277 23.284 20.2386 23.2769C20.8218 23.2556 20.9853 22.6132 20.9853 22.6132C20.9853 22.6132 23.7112 11.6455 23.8013 10.1759C23.8108 10.0313 23.8226 9.94121 23.8226 9.84166C23.825 9.70418 23.8108 9.56433 23.7895 9.50033Z" fill="#454545"/>
</svg>
