<svg width="40" height="40" viewBox="0 0 40 40" fill="none" xmlns="http://www.w3.org/2000/svg">
<path d="M20 40C31.0457 40 40 31.0457 40 20C40 8.9543 31.0457 0 20 0C8.9543 0 0 8.9543 0 20C0 31.0457 8.9543 40 20 40Z" fill="#229ED9"/>
<path d="M29.7368 11.8754C29.6598 11.6532 29.5679 11.591 29.4257 11.5376C29.1146 11.4191 28.5872 11.5969 28.5872 11.5969C28.5872 11.5969 9.89386 18.3139 8.82719 19.0606C8.59608 19.2206 8.51904 19.3124 8.48349 19.4221C8.29978 19.9524 8.8746 20.1865 8.8746 20.1865L13.6924 21.7569C13.6924 21.7569 13.8731 21.7836 13.9353 21.7421C15.0316 21.0487 24.9635 14.7791 25.5353 14.5687C25.6272 14.5421 25.6924 14.5717 25.6746 14.6339C25.4465 15.4399 16.8213 23.105 16.8213 23.105C16.8213 23.105 16.7887 23.1465 16.7679 23.1939L16.7561 23.188L16.3057 27.9673C16.3057 27.9673 16.1161 29.431 17.5827 27.9673C18.6168 26.9332 19.6153 26.071 20.1161 25.6502C21.7724 26.7939 23.5561 28.0591 24.3235 28.7199C24.7087 29.0517 25.0346 29.105 25.2983 29.0961C26.0272 29.0695 26.2316 28.2665 26.2316 28.2665C26.2316 28.2665 29.639 14.5569 29.7516 12.7199C29.7635 12.5391 29.7783 12.4265 29.7783 12.3021C29.7813 12.1302 29.7635 11.9554 29.7368 11.8754Z" fill="white"/>
</svg>
