<svg width="33" height="32" viewBox="0 0 33 32" fill="none" xmlns="http://www.w3.org/2000/svg">
<path d="M16.0117 32C24.8483 32 32.0117 24.8366 32.0117 16C32.0117 7.16344 24.8483 0 16.0117 0C7.17516 0 0.0117188 7.16344 0.0117188 16C0.0117188 24.8366 7.17516 32 16.0117 32Z" fill="#00ACEE"/>
<path d="M24.8571 10.519C24.3054 10.7722 23.6904 10.926 23.0934 11.0255C23.3738 10.9802 23.7899 10.4647 23.9617 10.2567C24.215 9.9401 24.432 9.57831 24.5496 9.18939C24.5677 9.16226 24.5768 9.11703 24.5496 9.09894C24.5135 9.08085 24.4863 9.0899 24.4592 9.10799C23.7899 9.46977 23.1025 9.72302 22.3699 9.91296C22.3066 9.93105 22.2613 9.91296 22.2252 9.87678C22.1618 9.80443 22.1076 9.74111 22.0443 9.68685C21.7367 9.42455 21.4021 9.21652 21.0313 9.06276C20.5428 8.86378 20.0092 8.78238 19.4756 8.80951C18.96 8.84569 18.4535 8.99041 18.0013 9.22557C17.54 9.46073 17.133 9.79538 16.8074 10.1933C16.4728 10.6094 16.2195 11.0978 16.0929 11.6134C15.9663 12.1108 15.9843 12.6083 16.0567 13.1148C16.0657 13.1962 16.0567 13.2143 15.9843 13.1962C13.1081 12.7711 10.7294 11.74 8.79384 9.53309C8.71244 9.43359 8.66721 9.4336 8.59486 9.54213C7.74466 10.8084 8.16071 12.8525 9.21894 13.8474C9.36365 13.9831 9.50837 14.1187 9.66213 14.2363C9.60786 14.2454 8.90238 14.173 8.27829 13.8474C8.19689 13.7931 8.15167 13.8203 8.14262 13.9197C8.13358 14.0554 8.14262 14.182 8.16976 14.3358C8.33256 15.6201 9.21894 16.814 10.44 17.2753C10.5847 17.3386 10.7475 17.3929 10.9012 17.42C10.6209 17.4833 10.3405 17.5286 9.54455 17.4653C9.44505 17.4472 9.40888 17.4924 9.44505 17.5919C10.042 19.2199 11.3354 19.7083 12.3032 19.9887C12.4298 20.0068 12.5655 20.0068 12.6921 20.043C12.683 20.052 12.674 20.052 12.665 20.0701C12.3393 20.5585 11.2269 20.9203 10.7113 21.1012C9.77066 21.4268 8.73957 21.5806 7.74466 21.4811C7.58186 21.4539 7.55472 21.463 7.5095 21.4811C7.46427 21.5082 7.50045 21.5444 7.55472 21.5896C7.7537 21.7253 7.96173 21.8429 8.16976 21.9514C8.80288 22.2861 9.46314 22.5574 10.1505 22.7473C13.7141 23.7332 17.73 23.0096 20.3981 20.3505C22.4965 18.2612 23.2382 15.385 23.2382 12.4997C23.2382 12.3912 23.3738 12.3279 23.4462 12.2646C23.9889 11.8576 24.432 11.3601 24.8391 10.8174C24.9295 10.6908 24.9295 10.5823 24.9295 10.537C24.9295 10.528 24.9295 10.519 24.9295 10.519C24.9205 10.4737 24.9205 10.4828 24.8571 10.519Z" fill="white"/>
</svg>
