<svg width="32" height="32" viewBox="0 0 32 32" fill="none" xmlns="http://www.w3.org/2000/svg">
<path d="M16 32C24.8366 32 32 24.8366 32 16C32 7.16344 24.8366 0 16 0C7.16344 0 0 7.16344 0 16C0 24.8366 7.16344 32 16 32Z" fill="#CCCCCC"/>
<path d="M24.8457 10.519C24.2939 10.7722 23.6789 10.926 23.082 11.0255C23.3623 10.9802 23.7784 10.4647 23.9503 10.2567C24.2035 9.9401 24.4206 9.57831 24.5382 9.18939C24.5562 9.16226 24.5653 9.11703 24.5382 9.09894C24.502 9.08085 24.4748 9.0899 24.4477 9.10799C23.7784 9.46977 23.091 9.72302 22.3584 9.91296C22.2951 9.93105 22.2499 9.91296 22.2137 9.87678C22.1504 9.80443 22.0961 9.74111 22.0328 9.68685C21.7253 9.42455 21.3906 9.21652 21.0198 9.06276C20.5314 8.86378 19.9977 8.78238 19.4641 8.80951C18.9486 8.84569 18.4421 8.99041 17.9898 9.22557C17.5285 9.46073 17.1215 9.79538 16.7959 10.1933C16.4613 10.6094 16.208 11.0978 16.0814 11.6134C15.9548 12.1108 15.9729 12.6083 16.0452 13.1148C16.0543 13.1962 16.0452 13.2143 15.9729 13.1962C13.0967 12.7711 10.7179 11.74 8.78236 9.53309C8.70096 9.43359 8.65574 9.4336 8.58338 9.54213C7.73318 10.8084 8.14924 12.8525 9.20746 13.8474C9.35218 13.9831 9.49689 14.1187 9.65065 14.2363C9.59638 14.2454 8.8909 14.173 8.26682 13.8474C8.18542 13.7931 8.14019 13.8203 8.13115 13.9197C8.1221 14.0554 8.13115 14.182 8.15828 14.3358C8.32109 15.6201 9.20746 16.814 10.4285 17.2753C10.5732 17.3386 10.736 17.3929 10.8898 17.42C10.6094 17.4833 10.329 17.5286 9.53307 17.4653C9.43358 17.4472 9.3974 17.4924 9.43358 17.5919C10.0305 19.2199 11.3239 19.7083 12.2917 19.9887C12.4183 20.0068 12.554 20.0068 12.6806 20.043C12.6716 20.052 12.6625 20.052 12.6535 20.0701C12.3279 20.5585 11.2154 20.9203 10.6998 21.1012C9.75919 21.4268 8.7281 21.5806 7.73318 21.4811C7.57038 21.4539 7.54325 21.463 7.49802 21.4811C7.4528 21.5082 7.48898 21.5444 7.54325 21.5896C7.74223 21.7253 7.95026 21.8429 8.15828 21.9514C8.79141 22.2861 9.45167 22.5574 10.1391 22.7473C13.7027 23.7332 17.7185 23.0096 20.3867 20.3505C22.485 18.2612 23.2267 15.385 23.2267 12.4997C23.2267 12.3912 23.3623 12.3279 23.4347 12.2646C23.9774 11.8576 24.4206 11.3601 24.8276 10.8174C24.918 10.6908 24.918 10.5823 24.918 10.537C24.918 10.528 24.918 10.519 24.918 10.519C24.909 10.4737 24.909 10.4828 24.8457 10.519Z" fill="#454545"/>
</svg>
