<svg width="40" height="40" viewBox="0 0 40 40" fill="none" xmlns="http://www.w3.org/2000/svg">
<path d="M20 40C31.0457 40 40 31.0457 40 20C40 8.9543 31.0457 0 20 0C8.9543 0 0 8.9543 0 20C0 31.0457 8.9543 40 20 40Z" fill="black"/>
<path d="M31.0568 13.1487C30.3672 13.4653 29.5984 13.6575 28.8522 13.7818C29.2027 13.7253 29.7228 13.0809 29.9376 12.8208C30.2541 12.4251 30.5255 11.9729 30.6724 11.4867C30.6951 11.4528 30.7064 11.3963 30.6724 11.3737C30.6272 11.3511 30.5933 11.3624 30.5594 11.385C29.7228 11.8372 28.8635 12.1538 27.9477 12.3912C27.8686 12.4138 27.8121 12.3912 27.7669 12.346C27.6877 12.2555 27.6199 12.1764 27.5407 12.1086C27.1563 11.7807 26.738 11.5207 26.2745 11.3285C25.664 11.0797 24.9969 10.978 24.3299 11.0119C23.6855 11.0571 23.0523 11.238 22.487 11.532C21.9104 11.8259 21.4017 12.2442 20.9947 12.7417C20.5764 13.2618 20.2598 13.8723 20.1015 14.5167C19.9432 15.1385 19.9658 15.7603 20.0563 16.3935C20.0676 16.4952 20.0563 16.5178 19.9658 16.4952C16.3706 15.9638 13.3972 14.675 10.9777 11.9164C10.876 11.792 10.8194 11.792 10.729 11.9277C9.66624 13.5105 10.1863 16.0656 11.5091 17.3092C11.69 17.4788 11.8709 17.6484 12.0631 17.7954C11.9952 17.8067 11.1134 17.7162 10.3333 17.3092C10.2315 17.2414 10.175 17.2753 10.1637 17.3997C10.1524 17.5693 10.1637 17.7276 10.1976 17.9197C10.4011 19.5252 11.5091 21.0175 13.0354 21.5941C13.2163 21.6733 13.4198 21.7411 13.612 21.775C13.2615 21.8542 12.911 21.9107 11.9161 21.8316C11.7917 21.809 11.7465 21.8655 11.7917 21.9898C12.5379 24.0249 14.1546 24.6354 15.3644 24.9859C15.5227 25.0085 15.6922 25.0085 15.8505 25.0537C15.8392 25.065 15.8279 25.065 15.8166 25.0876C15.4096 25.6982 14.019 26.1504 13.3745 26.3765C12.1987 26.7835 10.9099 26.9757 9.66624 26.8513C9.46273 26.8174 9.42881 26.8287 9.37228 26.8513C9.31576 26.8853 9.36098 26.9305 9.42881 26.987C9.67754 27.1566 9.93758 27.3036 10.1976 27.4393C10.989 27.8576 11.8143 28.1967 12.6736 28.4342C17.1281 29.6665 22.1479 28.762 25.4831 25.4381C28.106 22.8265 29.0331 19.2312 29.0331 15.6247C29.0331 15.489 29.2027 15.4099 29.2931 15.3307C29.9715 14.822 30.5255 14.2001 31.0342 13.5218C31.1473 13.3635 31.1473 13.2278 31.1473 13.1713C31.1473 13.16 31.1473 13.1487 31.1473 13.1487C31.136 13.0922 31.136 13.1035 31.0568 13.1487Z" fill="white"/>
</svg>
