<svg width="32" height="32" viewBox="0 0 32 32" fill="none" xmlns="http://www.w3.org/2000/svg">
<path d="M16 32C24.8366 32 32 24.8366 32 16C32 7.16344 24.8366 0 16 0C7.16344 0 0 7.16344 0 16C0 24.8366 7.16344 32 16 32Z" fill="#CCCCCC"/>
<path d="M24.5651 13.7117C24.5651 11.5862 22.8467 9.86774 20.7212 9.86774H10.8987C8.77317 9.86774 7.05469 11.5862 7.05469 13.7117V18.2883C7.05469 20.4138 8.77317 22.1323 10.8987 22.1323H20.7212C22.8467 22.1323 24.5651 20.4138 24.5651 18.2883V13.7117ZM18.7856 16.3437L14.3809 18.5235C14.209 18.6139 13.6211 18.4963 13.6211 18.2974V13.8203C13.6211 13.6213 14.209 13.4946 14.3899 13.5941L18.6047 15.8915C18.7856 15.991 18.9665 16.2442 18.7856 16.3437Z" fill="#454545"/>
</svg>
