<svg width="33" height="32" viewBox="0 0 33 32" fill="none" xmlns="http://www.w3.org/2000/svg">
<path d="M16.0117 32C24.8483 32 32.0117 24.8366 32.0117 16C32.0117 7.16344 24.8483 0 16.0117 0C7.17516 0 0.0117188 7.16344 0.0117188 16C0.0117188 24.8366 7.17516 32 16.0117 32Z" fill="#C4302B"/>
<path d="M24.5771 13.7117C24.5771 11.5862 22.8586 9.86774 20.7331 9.86774L10.9106 9.86774C8.78514 9.86774 7.06665 11.5862 7.06665 13.7117L7.06665 18.2883C7.06665 20.4138 8.78514 22.1323 10.9106 22.1323L20.7331 22.1323C22.8586 22.1323 24.5771 20.4138 24.5771 18.2883L24.5771 13.7117ZM18.7976 16.3437L14.3928 18.5235C14.221 18.6139 13.6331 18.4963 13.6331 18.2974L13.6331 13.8203C13.6331 13.6213 14.221 13.4946 14.4019 13.5941L18.6167 15.8915C18.7976 15.991 18.9785 16.2442 18.7976 16.3437Z" fill="white"/>
</svg>
