<svg width="40" height="40" viewBox="0 0 40 40" fill="none" xmlns="http://www.w3.org/2000/svg">
<path d="M20 40C31.0457 40 40 31.0457 40 20C40 8.9543 31.0457 0 20 0C8.9543 0 0 8.9543 0 20C0 31.0457 8.9543 40 20 40Z" fill="black"/>
<path d="M30.7064 17.1396C30.7064 14.4828 28.5583 12.3347 25.9015 12.3347H13.6233C10.9665 12.3347 8.81836 14.4828 8.81836 17.1396V22.8604C8.81836 25.5172 10.9665 27.6653 13.6233 27.6653H25.9015C28.5583 27.6653 30.7064 25.5172 30.7064 22.8604V17.1396ZM23.482 20.4296L17.9761 23.1543C17.7613 23.2674 17.0264 23.1204 17.0264 22.8717V17.2753C17.0264 17.0266 17.7613 16.8683 17.9874 16.9927L23.2559 19.8643C23.482 19.9887 23.7081 20.3053 23.482 20.4296Z" fill="white"/>
</svg>
