<svg width="40" height="40" viewBox="0 0 40 40" fill="none" xmlns="http://www.w3.org/2000/svg">
<path d="M20 40C31.0457 40 40 31.0457 40 20C40 8.9543 31.0457 0 20 0C8.9543 0 0 8.9543 0 20C0 31.0457 8.9543 40 20 40Z" fill="#C4302B"/>
<path d="M30.7067 17.1396C30.7067 14.4828 28.5586 12.3347 25.9017 12.3347L13.6236 12.3347C10.9667 12.3347 8.8186 14.4828 8.8186 17.1396V22.8604C8.8186 25.5173 10.9667 27.6654 13.6236 27.6654L25.9017 27.6654C28.5586 27.6654 30.7067 25.5173 30.7067 22.8604L30.7067 17.1396ZM23.4823 20.4296L17.9763 23.1543C17.7615 23.2674 17.0266 23.1204 17.0266 22.8717V17.2753C17.0266 17.0266 17.7615 16.8683 17.9876 16.9927L23.2561 19.8644C23.4823 19.9887 23.7084 20.3053 23.4823 20.4296Z" fill="white"/>
</svg>
